<?xml version="1.0" standalone="no"?>
<!DOCTYPE svg PUBLIC "-//W3C//DTD SVG 1.1//EN" "http://www.w3.org/Graphics/SVG/1.1/DTD/svg11.dtd" >
<svg xmlns="http://www.w3.org/2000/svg" xmlns:xlink="http://www.w3.org/1999/xlink" version="1.1">
<metadata>
Created by FontForge 20170910 at Fri Sep 30 05:30:41 2016
 By Jimmy Wärting
Copyright (c) 2016 JSC RPA RusBITech. All rights reserved.
</metadata>
<defs>
<font id="PTAstraSans-Bold" horiz-adv-x="1024" >
  <font-face 
    font-family="PT Astra Sans"
    font-weight="700"
    font-stretch="normal"
    units-per-em="2048"
    panose-1="2 11 7 3 2 2 3 2 2 4"
    ascent="1638"
    descent="-410"
    x-height="936"
    cap-height="1356"
    bbox="-81 -445 2218 1748"
    underline-thickness="195"
    underline-position="-320"
    unicode-range="U+000D-04FD"
  />
<missing-glyph horiz-adv-x="1593" 
d="M269 0v1210h968v-1210h-968zM299 30h908v1150h-908v-1150z" />
    <glyph glyph-name=".notdef" horiz-adv-x="1593" 
d="M269 0v1210h968v-1210h-968zM299 30h908v1150h-908v-1150z" />
    <glyph glyph-name=".null" horiz-adv-x="0" 
 />
    <glyph glyph-name=".null" horiz-adv-x="0" 
 />
    <glyph glyph-name="nonmarkingreturn" unicode="&#xd;" horiz-adv-x="512" 
 />
    <glyph glyph-name="space" unicode=" " horiz-adv-x="512" 
 />
    <glyph glyph-name="exclam" unicode="!" horiz-adv-x="682" 
d="M201 1356h283v-634l-54 -312h-175l-54 312v634zM172 131q0 72 47 113t121 41q78 0 124.5 -41t46.5 -113q0 -67 -46.5 -110t-124.5 -43q-74 0 -121 43t-47 110z" />
    <glyph glyph-name="quotedbl" unicode="&#x22;" horiz-adv-x="1137" 
d="M265 1356h240l-74 -423h-166v423zM574 1356h240l-74 -423h-166v423z" />
    <glyph glyph-name="numbersign" unicode="#" 
d="M532 393h-187l-75 -297h-217l75 297h-125l47 196h129l50 197h-121l46 196h125l72 277h216l-70 -277h187l72 277h217l-72 -277h119l-51 -196h-118l-53 -197h115l-50 -196h-115l-74 -297h-216zM395 589h189l50 197h-189z" />
    <glyph glyph-name="dollar" unicode="$" 
d="M399 -26q-121 4 -211 24.5t-140 45.5l81 235q39 -22 107 -41.5t163 -26.5v364q-67 25 -130.5 57t-114 79.5t-81.5 112.5t-31 158q0 176 96 270.5t261 120.5v176h218v-170q94 -6 163.5 -23.5t126.5 -44.5l-73 -228q-33 15 -90 31.5t-127 25.5v-336q66 -26 132 -57.5
t118.5 -78.5t84 -110.5t31.5 -152.5q0 -187 -97.5 -288.5t-268.5 -129.5v-181h-218v168zM526 209q95 9 136.5 51t41.5 110q0 58 -50 92.5t-128 66.5v-320zM489 1148q-50 -2 -83 -12.5t-52.5 -29t-26 -43.5t-6.5 -56q0 -56 47.5 -90t120.5 -65v296z" />
    <glyph glyph-name="percent" unicode="%" horiz-adv-x="2048" 
d="M150 1050q0 87 27 148.5t76 101.5t116 59.5t149 19.5q79 0 146.5 -17.5t117 -57.5t77 -102.5t27.5 -151.5q0 -91 -27.5 -153t-77 -101.5t-117 -57t-146.5 -17.5q-82 0 -149 17.5t-116 57t-76 101.5t-27 153zM396 1050q0 -76 27 -118.5t95 -42.5q65 0 92.5 37t27.5 124
t-27.5 123.5t-92.5 36.5q-66 0 -94 -36.5t-28 -123.5zM1163 329q0 87 27 149t76.5 101.5t116 59t148.5 19.5q79 0 146.5 -17.5t117.5 -57t76.5 -102.5t26.5 -152q0 -91 -26.5 -153t-76.5 -101.5t-117.5 -57t-146.5 -17.5q-82 0 -148.5 17.5t-116 57t-76.5 101.5t-27 153z
M1409 329q0 -76 27 -118.5t95 -42.5q65 0 92.5 37t27.5 124t-27.5 124t-92.5 37q-67 0 -94.5 -37t-27.5 -124zM1372 1379l158 -110l-874 -1325l-158 104z" />
    <glyph glyph-name="ampersand" unicode="&#x26;" horiz-adv-x="1706" 
d="M162 357q0 73 28.5 140t80 126.5t123.5 110.5t159 92q-27 28 -50 61t-40 67.5t-27 71t-10 72.5q0 50 22.5 101t69.5 91.5t119.5 66t172.5 25.5q97 0 164.5 -22.5t109 -59.5t60 -84t18.5 -95q0 -57 -23.5 -107t-62.5 -92t-91 -76.5t-109 -59.5q78 -109 153 -188.5
t153 -140.5q48 48 99.5 117.5t91.5 147.5l198 -112q-23 -43 -50 -83.5t-55.5 -77t-56 -67.5t-49.5 -54q26 -22 61 -45.5t71 -45.5t69 -39.5t55 -27.5l-151 -197q-27 12 -63 31t-74 42.5t-75 49.5t-66 52q-63 -51 -123.5 -84.5t-123 -54t-130 -28.5t-145.5 -8
q-107 0 -199 24.5t-159.5 73t-106 120.5t-38.5 166zM1015 300q-48 41 -97 87t-94.5 93.5t-85 95t-69.5 90.5q-50 -21 -93 -49.5t-74.5 -64t-50 -75.5t-18.5 -83q0 -51 21 -87.5t56.5 -60.5t82 -35t96.5 -11q36 0 76 4t81.5 14.5t84 30t84.5 51.5zM694 1085q0 -40 24.5 -85.5
t62.5 -90.5q46 20 78.5 44t52 48t28.5 46.5t9 40.5q0 99 -130 99q-24 0 -47 -8t-40 -21.5t-27.5 -32.5t-10.5 -40z" />
    <glyph glyph-name="quotesingle" unicode="'" horiz-adv-x="569" 
d="M164 1356h240l-74 -423h-166v423z" />
    <glyph glyph-name="parenleft" unicode="(" horiz-adv-x="682" 
d="M467 -426q-98 93 -164.5 204t-108 228.5t-60 236.5t-18.5 228q0 106 18.5 224t61 237.5t111.5 233.5t167 213l174 -119q-72 -88 -123 -186t-80.5 -199t-43.5 -203.5t-14 -200.5q0 -94 16 -196.5t47.5 -204t82 -198.5t119.5 -178z" />
    <glyph glyph-name="parenright" unicode=")" horiz-adv-x="682" 
d="M30 -306q69 81 119.5 178t82 198.5t47.5 204t16 196.5q0 98 -13.5 200.5t-43.5 203.5t-80.5 199t-123.5 186l174 119q98 -99 167 -213t111.5 -233.5t61 -237.5t18.5 -224q0 -109 -18.5 -228t-60 -236.5t-108 -228.5t-164.5 -204z" />
    <glyph glyph-name="asterisk" unicode="*" 
d="M419 1423l58 -91l31 -118l31 111l58 98l130 -71l-62 -105l-99 -85l135 33h117v-149h-112l-127 35l103 -94l52 -87l-131 -74l-56 94l-41 126l-27 -115l-60 -100l-132 75l63 101l92 72l-116 -33h-120v151h122l122 -35l-104 87l-59 98z" />
    <glyph glyph-name="plus" unicode="+" horiz-adv-x="1167" 
d="M122 769h341v349h240v-349h341v-233h-341v-350h-240v350h-341v233z" />
    <glyph glyph-name="comma" unicode="," horiz-adv-x="512" 
d="M96 130q0 66 47 105.5t116 39.5q88 0 138 -56t50 -143q0 -91 -28.5 -155.5t-72 -106t-92.5 -65.5t-89 -36l-78 113q55 17 94.5 64.5t47.5 101.5q-46 -5 -89.5 28.5t-43.5 109.5z" />
    <glyph glyph-name="hyphen" unicode="-" horiz-adv-x="682" 
d="M77 678h528v-240h-528v240z" />
    <glyph glyph-name="period" unicode="." horiz-adv-x="512" 
d="M86 131q0 72 46.5 113t121.5 41q78 0 124.5 -41t46.5 -113q0 -67 -46.5 -110t-124.5 -43q-75 0 -121.5 43t-46.5 110z" />
    <glyph glyph-name="slash" unicode="/" horiz-adv-x="569" 
d="M428 1377l222 -65l-504 -1650l-227 66z" />
    <glyph glyph-name="zero" unicode="0" 
d="M70 677q0 346 109.5 525.5t332.5 179.5t332.5 -179.5t109.5 -525.5t-109.5 -525.5t-332.5 -179.5t-332.5 179.5t-109.5 525.5zM675 677q0 117 -5 206.5t-22.5 150t-49.5 91.5t-86 31t-86.5 -31t-49.5 -91.5t-22 -150t-5 -206.5t5 -206.5t22.5 -150t49.5 -91.5t86 -31
t86.5 31t49.5 91.5t22 150t5 206.5z" />
    <glyph glyph-name="one" unicode="1" 
d="M138 227h271v715l13 143l-100 -108l-152 -99l-107 159l453 342h154v-1152h264v-227h-796v227z" />
    <glyph glyph-name="two" unicode="2" 
d="M874 1020q0 -106 -38 -208.5t-96 -197t-126 -178t-128 -151.5l-109 -81v-7l149 30h351v-227h-825v135q71 60 139 126.5t128.5 137t111 143t87 143.5t57 139.5t20.5 131.5q0 85 -49 135.5t-135 50.5q-69 0 -126 -27t-111 -73l-112 194q94 70 193.5 108t218.5 38
q82 0 155 -22.5t127.5 -68t86 -113.5t31.5 -158z" />
    <glyph glyph-name="three" unicode="3" 
d="M398 200q65 0 111.5 16.5t76.5 45t44 66t14 79.5q0 106 -70.5 155.5t-218.5 49.5h-133v144l240 301l92 84l-146 -12h-311v227h762v-146l-257 -326l-115 -86l89 3q69 -7 130 -33.5t107.5 -73.5t73.5 -115.5t27 -158.5q0 -114 -38 -198.5t-106 -139.5t-162 -82t-206 -27
q-45 0 -94 4t-96.5 11.5t-89 19.5t-71.5 27l74 224q55 -24 122 -41.5t151 -17.5z" />
    <glyph glyph-name="four" unicode="4" 
d="M1012 374h-170v-374h-255v374h-567v151l597 840h225v-781h170v-210zM587 863l4 157l-70 -137l-165 -230l-72 -76l119 7h184v279z" />
    <glyph glyph-name="five" unicode="5" 
d="M396 213q67 0 116.5 17.5t81 48t47 72t15.5 90.5q0 105 -79.5 158.5t-241.5 45.5l-168 -8v719h694v-252h-458v-241l88 9q102 -4 183 -36.5t137.5 -88.5t86.5 -135t30 -176q0 -115 -38.5 -201.5t-108 -144.5t-166.5 -87.5t-215 -29.5q-96 0 -177 17.5t-139 42.5l74 226
q24 -9 48.5 -17t52.5 -14.5t61.5 -10.5t75.5 -4z" />
    <glyph glyph-name="six" unicode="6" 
d="M970 432q0 -90 -31.5 -173t-90.5 -146.5t-144.5 -101.5t-193.5 -38t-193.5 35t-145 101.5t-91.5 162t-32 216.5q0 187 57 342t156 270.5t234 187.5t291 94l56 -210q-117 -24 -206.5 -65.5t-153.5 -99t-104 -130t-57 -156.5q24 25 51.5 47t58 38t65 25.5t71.5 9.5
q97 0 172 -30t126.5 -84t78 -129.5t26.5 -165.5zM707 408q0 103 -47.5 154.5t-153.5 51.5q-38 0 -69 -11t-55.5 -28t-42 -37.5t-27.5 -38.5q-4 -21 -4 -31.5v-24.5q0 -44 9.5 -87.5t33.5 -78t63.5 -56t99.5 -21.5q49 0 85 16.5t60 45t36 66.5t12 80z" />
    <glyph glyph-name="seven" unicode="7" 
d="M148 0l423 973l86 137l-148 -10h-437v256h892v-76l-550 -1280h-266z" />
    <glyph glyph-name="eight" unicode="8" 
d="M52 335q0 68 18 121.5t50.5 96t78 76t100.5 62.5q-42 32 -80 65.5t-66.5 72.5t-45 86t-16.5 107q0 75 28.5 140.5t83.5 114t135.5 77t184.5 28.5q96 0 172 -24t129 -67.5t81.5 -104t28.5 -133.5q0 -57 -14.5 -105t-41 -88.5t-64.5 -76t-86 -66.5q63 -34 105 -71t74 -77
q66 -80 66 -205q0 -87 -33.5 -158.5t-94.5 -123.5t-147.5 -80.5t-192.5 -28.5t-190 26.5t-142.5 74.5t-89.5 114.5t-31 146.5zM713 362q0 43 -22.5 78t-58.5 64t-81 53.5t-91 46.5q-32 -17 -60.5 -39t-50 -50t-34.5 -62t-13 -74q0 -44 17 -77.5t45.5 -56t66 -34t79.5 -11.5
q99 0 151 41.5t52 120.5zM350 1018q0 -46 18.5 -80.5t50 -61.5t72 -47.5t84.5 -39.5q61 48 86 100.5t25 109.5q0 37 -12.5 66t-35 49t-53 31t-67.5 11q-47 0 -79 -11t-51.5 -29.5t-28.5 -44t-9 -53.5z" />
    <glyph glyph-name="nine" unicode="9" 
d="M59 930q0 94 31 176.5t90 144t144.5 96.5t194.5 35q106 0 191 -36t144 -102.5t90.5 -161.5t31.5 -212q0 -150 -27.5 -273t-77 -220t-118 -169.5t-150.5 -122t-174.5 -77t-189.5 -35.5l-58 207q115 15 202 52.5t149 92.5t100.5 125t55.5 150q-28 -27 -52 -44.5t-49 -27
t-53.5 -13t-65.5 -3.5q-80 0 -154 25.5t-130.5 77t-90.5 130t-34 185.5zM322 943q0 -215 187 -215q40 0 72 9.5t57 23t43 28.5t30 26q2 22 4 39.5t2 32.5q0 51 -9 101t-32.5 89.5t-64 64t-102.5 24.5q-88 0 -137.5 -58.5t-49.5 -164.5z" />
    <glyph glyph-name="colon" unicode=":" horiz-adv-x="682" 
d="M172 131q0 72 46.5 113t121.5 41q78 0 124.5 -41t46.5 -113q0 -67 -46.5 -110t-124.5 -43q-75 0 -121.5 43t-46.5 110zM172 823q0 72 46.5 113t121.5 41q78 0 124.5 -41t46.5 -113q0 -67 -46.5 -110t-124.5 -43q-75 0 -121.5 43t-46.5 110z" />
    <glyph glyph-name="semicolon" unicode=";" horiz-adv-x="682" 
d="M171 130q0 66 47 105.5t116 39.5q88 0 138 -56t50 -143q0 -91 -28.5 -155.5t-72 -106t-92.5 -65.5t-89 -36l-78 113q55 17 94.5 64.5t47.5 101.5q-46 -5 -89.5 28.5t-43.5 109.5zM170 823q0 72 46.5 113t121.5 41q78 0 124.5 -41t46.5 -113q0 -67 -46.5 -110t-124.5 -43
q-75 0 -121.5 43t-46.5 110z" />
    <glyph glyph-name="less" unicode="&#x3c;" horiz-adv-x="1167" 
d="M110 548v143l821 457l113 -189l-466 -268l-192 -68l190 -59l477 -264l-110 -189z" />
    <glyph glyph-name="equal" unicode="=" horiz-adv-x="1167" 
d="M122 957h924v-233h-924v233zM122 581h924v-232h-924v232z" />
    <glyph glyph-name="greater" unicode="&#x3e;" horiz-adv-x="1167" 
d="M1057 711v-144l-824 -458l-109 193l467 265l192 70l-190 58l-479 266l109 190z" />
    <glyph glyph-name="question" unicode="?" 
d="M306 410q-11 109 10 183t59 124t84.5 84t88 64.5t69.5 65t28 82.5q0 68 -40 105.5t-144 37.5q-33 0 -72.5 -8t-78.5 -21t-75 -30.5t-60 -37.5l-105 201q79 53 182.5 87.5t253.5 34.5q196 0 309 -88.5t113 -240.5q0 -104 -28 -169t-71.5 -108.5t-93.5 -75t-93.5 -67.5
t-71 -87.5t-27.5 -135.5h-237zM266 131q0 72 46 113t122 41q77 0 123.5 -41t46.5 -113q0 -67 -46.5 -110t-123.5 -43q-76 0 -122 43t-46 110z" />
    <glyph glyph-name="at" unicode="@" horiz-adv-x="1905" 
d="M1253 860h136l-95 -477q-4 -20 -6.5 -37t-2.5 -31q0 -43 19 -61.5t55 -18.5q49 0 95.5 21.5t82.5 66t58 111.5t22 157q0 133 -47.5 228.5t-130 156.5t-194 89.5t-238.5 28.5q-101 0 -191.5 -23.5t-167.5 -66t-139.5 -103t-106.5 -134t-67.5 -159t-23.5 -178.5
q0 -138 41 -251t124.5 -193.5t209 -124t294.5 -43.5q66 0 135.5 14t127.5 37l59 -186q-87 -38 -173 -52t-177 -14q-191 0 -348.5 53.5t-270.5 156.5t-175.5 252t-62.5 341q-1 131 32.5 247.5t94 213.5t144.5 174.5t186 130.5t218.5 81t240.5 28q178 0 328 -50.5
t259.5 -143.5t171 -225t61.5 -295q0 -113 -42 -212t-115.5 -172t-173 -115t-215.5 -42q-49 0 -90 9.5t-69.5 33.5t-42 64t-6.5 100h-7q-30 -42 -63.5 -79.5t-74 -66t-89 -45t-108.5 -16.5q-47 0 -88 18.5t-72 53t-48.5 82.5t-17.5 107q0 70 17.5 140t49.5 133t76 117.5
t98 94.5t115 62.5t126 22.5q68 0 114.5 -18.5t87.5 -50.5zM1131 634q-26 22 -53 31.5t-69 9.5q-59 0 -107.5 -29.5t-84 -75t-55 -100t-19.5 -103.5q0 -29 6 -53t19.5 -41.5t36 -27.5t55.5 -10q29 0 59 15t59 41t56 60.5t49 72.5z" />
    <glyph glyph-name="A" unicode="A" horiz-adv-x="1479" 
d="M1013 288h-563l-123 -288h-287l593 1365h211l595 -1365h-304zM547 515h370l-119 283l-61 175h-8l-62 -177z" />
    <glyph glyph-name="B" unicode="B" horiz-adv-x="1366" 
d="M1219 1036q0 -50 -14.5 -99.5t-46 -92t-81.5 -74t-122 -44.5v-11q64 -6 120.5 -29.5t98.5 -65t66 -101t24 -138.5q-1 -106 -50 -181.5t-129 -124t-182 -71.5t-209 -23h-94.5t-127.5 2.5t-137.5 8.5t-124.5 17v1337q41 6 95.5 11.5t116 9t126.5 6t127 2.5q67 0 133 -6
t126.5 -21t112.5 -40t90 -62.5t60 -89.5t22 -120zM691 213q54 0 103 10t86.5 32t60 56.5t22.5 83.5q0 62 -27 98.5t-70.5 55t-97 23.5t-107.5 5h-175v-352q10 -5 35 -7t56 -3.5t62 -1.5h52zM599 791h33t36.5 0.5t35.5 1.5t31 3q82 26 137 69q56 44 56 118q0 51 -23 82
t-60 48.5t-83.5 23t-93.5 5.5q-55 0 -105 -1.5t-77 -5.5v-344h113z" />
    <glyph glyph-name="C" unicode="C" horiz-adv-x="1479" 
d="M1387 103q-61 -35 -125.5 -59.5t-127 -40.5t-120 -23t-105.5 -7q-66 0 -138 5.5t-143 22t-137.5 46.5t-122.5 79q-51 44 -93 100t-72 124.5t-46.5 150.5t-16.5 179q0 153 51.5 281t155.5 231q50 49 111 85t130 59t144.5 34.5t154.5 11.5q127 0 245 -26.5t235 -83.5
l-83 -244q-95 51 -190.5 77t-195.5 26q-91 0 -176 -23t-150 -86q-58 -57 -93 -145t-35 -197q0 -114 36.5 -207t102.5 -148q38 -32 76.5 -51.5t80.5 -30t89.5 -14.5t102.5 -4q48 0 97 8.5t97.5 23.5t94 35.5t85.5 44.5z" />
    <glyph glyph-name="D" unicode="D" horiz-adv-x="1479" 
d="M200 1356q42 6 100 9.5t120 6t121.5 3t103.5 0.5q194 0 332 -51t226 -142.5t129 -217t41 -275.5q0 -90 -17 -177.5t-54.5 -167t-97 -146.5t-143 -116t-193.5 -76.5t-248 -27.5q-23 0 -58 1.5t-75.5 3t-84 3.5t-82.5 4t-71 4t-49 4v1358zM666 1123h-49t-50.5 -1t-46 -2
t-34.5 -2v-880q9 -2 32 -3.5t49 -2t49.5 -1t32.5 -0.5q124 0 205 38.5t129 102.5t67 145.5t19 168.5q0 36 -4 74t-13.5 75.5t-25 73t-38.5 67.5q-45 64 -122.5 105.5t-199.5 41.5z" />
    <glyph glyph-name="E" unicode="E" horiz-adv-x="1366" 
d="M210 1356h993v-252h-706v-295h651v-251h-651v-306h715v-252h-1002v1356z" />
    <glyph glyph-name="F" unicode="F" horiz-adv-x="1251" 
d="M210 1356h961v-252h-674v-315h608v-253h-608v-536h-287v1356z" />
    <glyph glyph-name="G" unicode="G" horiz-adv-x="1593" 
d="M884 713h544v-608q-69 -41 -140 -67t-139 -40.5t-130.5 -19.5t-114.5 -5q-75 0 -152 9.5t-150.5 31.5t-141 59t-123.5 91q-97 94 -147 222.5t-50 294.5q0 78 14.5 148t39 130.5t58.5 112t73 93.5q58 63 128 104.5t145.5 66.5t153 35.5t149.5 10.5q127 0 255 -23t240 -74
l-83 -247q-85 40 -184 66.5t-198 26.5q-49 0 -97.5 -5t-94.5 -17t-87.5 -33t-75.5 -53q-63 -59 -97.5 -146.5t-34.5 -202.5q0 -136 50.5 -232.5t138.5 -148.5q60 -36 134 -52t166 -16q26 0 60 2t69.5 8t70.5 16t62 25v232l-311 30v175z" />
    <glyph glyph-name="H" unicode="H" horiz-adv-x="1593" 
d="M1096 560h-600v-560h-286v1356h286v-545h600v545h287v-1356h-287v560z" />
    <glyph glyph-name="I" unicode="I" horiz-adv-x="797" 
d="M256 1201h-161v155h607v-155h-160v-1046h160v-155h-607v155h161v1046z" />
    <glyph glyph-name="J" unicode="J" 
d="M537 1356h287v-968q0 -96 -34 -179.5t-98 -141.5q-28 -25 -64.5 -42.5t-77.5 -29t-85 -16.5t-86 -5q-38 0 -79 4t-84 14.5t-86.5 29.5t-85.5 50l94 232q38 -28 69.5 -43.5t57 -23t46.5 -9t38 -1.5q48 0 83.5 15t59 42t34.5 65t11 83v924z" />
    <glyph glyph-name="K" unicode="K" horiz-adv-x="1593" 
d="M637 573h-131v-573h-286v1356h286v-597l116 30l541 567h359l-576 -571l-80 -74l85 -78l628 -633h-386z" />
    <glyph glyph-name="L" unicode="L" horiz-adv-x="1366" 
d="M1292 0h-1072v1356h286v-1104h786v-252z" />
    <glyph glyph-name="M" unicode="M" horiz-adv-x="1933" 
d="M1436 690l13 231h-7l-88 -153l-347 -526h-89l-367 528l-83 149h-6l19 -227v-692h-271v1356h260l432 -626l74 -119h9l65 123l415 622h258v-1356h-287v690z" />
    <glyph glyph-name="N" unicode="N" horiz-adv-x="1479" 
d="M554 719l-110 176h-8l16 -187v-708h-272v1365h207l543 -734l108 -190h9l-19 200v715h271v-1365h-207z" />
    <glyph glyph-name="O" unicode="O" horiz-adv-x="1593" 
d="M115 676q0 168 49 299.5t138.5 221.5t214.5 137.5t278 47.5q162 0 288.5 -51t214.5 -144t134 -222.5t46 -286.5q0 -158 -46 -288t-134 -223t-214.5 -144t-288.5 -51q-153 0 -278 47.5t-214.5 137.5t-138.5 221t-49 298zM418 678q0 -117 27 -203t76.5 -142t119 -83
t154.5 -27q97 0 168.5 35t118 96t69 144.5t22.5 179.5t-22.5 179t-69 143.5t-118 95.5t-168.5 35q-85 0 -154.5 -27t-119 -83t-76.5 -141.5t-27 -201.5z" />
    <glyph glyph-name="P" unicode="P" horiz-adv-x="1251" 
d="M184 1342q88 16 190.5 24.5t208.5 8.5q57 0 116.5 -5.5t116.5 -18t108 -34t92 -53.5q69 -54 111 -139t42 -203q0 -126 -47 -216t-125.5 -147t-180 -83.5t-209.5 -26.5q-10 0 -28.5 0.5t-38.5 1.5t-39 2.5t-30 3.5v-457h-287v1342zM601 1123q-42 0 -74.5 -2.5t-55.5 -6.5
v-403q8 -2 23.5 -4t32.5 -3.5t33 -2t25 -0.5q57 0 107.5 9.5t88.5 34t60.5 66t22.5 105.5q0 59 -20.5 99t-56 64t-83.5 34t-103 10z" />
    <glyph glyph-name="Q" unicode="Q" horiz-adv-x="1593" 
d="M115 676q0 168 49 299.5t138.5 221.5t214.5 137.5t278 47.5q162 0 288.5 -51t214.5 -144t134 -222.5t46 -286.5q0 -142 -37 -261.5t-108.5 -210t-175 -148.5t-235.5 -77q8 -80 50.5 -119.5t130.5 -39.5q24 0 50 4t51 10.5t48.5 16t42.5 21.5l50 -230q-27 -20 -64 -34.5
t-75 -24.5t-73.5 -14.5t-60.5 -4.5q-98 0 -167 18.5t-122 58.5q-69 52 -104 138.5t-40 204.5q-120 22 -216.5 78t-165 143.5t-105.5 205.5t-37 263zM418 678q0 -117 27 -203t76.5 -142t119 -83t154.5 -27q97 0 168.5 35t118 96t69 144.5t22.5 179.5t-22.5 179t-69 143.5
t-118 95.5t-168.5 35q-85 0 -154.5 -27t-119 -83t-76.5 -141.5t-27 -201.5z" />
    <glyph glyph-name="R" unicode="R" horiz-adv-x="1479" 
d="M210 1342q47 8 108 14t124 10.5t123 6.5t105 2q52 0 107.5 -4.5t109 -15.5t102.5 -28.5t89 -42.5q75 -48 120.5 -126t45.5 -187q0 -84 -23 -150t-62.5 -114t-93 -79t-114.5 -45l70 -70l412 -513h-354l-397 525l-186 23v-548h-286v1342zM674 1123q-23 0 -48.5 -0.5t-50 -1
t-45.5 -2t-34 -3.5v-375h156q55 0 110 8.5t96 32.5q38 23 60 62t22 102q0 39 -20 77.5t-56 60.5q-35 22 -85 30.5t-105 8.5z" />
    <glyph glyph-name="S" unicode="S" horiz-adv-x="1139" 
d="M777 372q0 39 -23 68t-62 52t-90.5 42t-109.5 38q-69 23 -138.5 55.5t-125 81t-90.5 115t-35 156.5q0 102 35.5 177.5t101 125.5t157 74.5t202.5 24.5q130 0 243 -22q115 -23 189 -63l-91 -240q-24 14 -60.5 28t-81.5 25t-97.5 18t-107.5 7q-97 0 -150 -34t-53 -94
q0 -33 15 -57.5t41 -44.5t59.5 -35.5t71 -29t76 -27t73.5 -28.5q63 -27 123.5 -61t108.5 -79.5t77 -104.5t29 -135q0 -112 -39 -193.5t-109.5 -134.5t-169 -78.5t-216.5 -25.5q-79 0 -151 9t-132 22t-105.5 28.5t-71.5 29.5l95 250q21 -12 58.5 -28t84.5 -30t100.5 -24
t106.5 -10q130 0 196 37t66 115z" />
    <glyph glyph-name="T" unicode="T" horiz-adv-x="1366" 
d="M1296 1104h-470v-1104h-287v1104h-469v252h1226v-252z" />
    <glyph glyph-name="U" unicode="U" horiz-adv-x="1479" 
d="M1023 1356h272v-870q0 -132 -40.5 -228t-112.5 -159t-170 -93t-212 -30q-137 0 -244 30t-181 89.5t-112.5 149t-38.5 208.5v903h286v-850q0 -140 68 -208.5t218 -68.5q63 0 113 15.5t84 49t52 86t18 126.5v850z" />
    <glyph glyph-name="V" unicode="V" horiz-adv-x="1479" 
d="M694 573l61 -181h9l63 183l308 781h302l-593 -1365h-205l-597 1365h333z" />
    <glyph glyph-name="W" unicode="W" horiz-adv-x="2048" 
d="M599 610l43 -180h7l44 184l256 742h185l251 -746l45 -180h9l44 184l201 742h294l-443 -1365h-193l-263 737l-46 169h-12l-45 -171l-262 -735h-204l-440 1365h314z" />
    <glyph glyph-name="X" unicode="X" horiz-adv-x="1479" 
d="M549 689l-451 667h346l247 -383l63 -103l64 103l268 383h316l-476 -650l498 -706h-343l-289 412l-69 100l-68 -100l-284 -412h-316z" />
    <glyph glyph-name="Y" unicode="Y" horiz-adv-x="1479" 
d="M596 499l-564 857h354l304 -490l62 -115h7l62 118l303 487h323l-564 -855v-501h-287v499z" />
    <glyph glyph-name="Z" unicode="Z" horiz-adv-x="1366" 
d="M116 252l728 772l98 80h-806v252h1113v-252l-732 -779l-93 -73h842v-252h-1150v252z" />
    <glyph glyph-name="bracketleft" unicode="[" horiz-adv-x="682" 
d="M130 1356h491v-227h-231v-1347h231v-227h-491v1801z" />
    <glyph glyph-name="backslash" unicode="\" horiz-adv-x="569" 
d="M650 -272l-227 -66l-504 1650l222 65z" />
    <glyph glyph-name="bracketright" unicode="]" horiz-adv-x="682" 
d="M552 -445h-492v227h232v1347h-232v227h492v-1801z" />
    <glyph glyph-name="asciicircum" unicode="^" horiz-adv-x="1190" 
d="M533 1365h146l389 -569h-275l-139 220l-57 126l-64 -128l-150 -218h-262z" />
    <glyph glyph-name="underscore" unicode="_" 
d="M15 -218h995v-220h-995v220z" />
    <glyph glyph-name="grave" unicode="`" horiz-adv-x="682" 
d="M530 1105h-144l-272 249v58h285z" />
    <glyph glyph-name="a" unicode="a" 
d="M147 876q57 25 107 40t98 23.5t97 11t103 2.5q99 0 166.5 -23.5t109 -67t59.5 -104.5t18 -136q0 -91 -7 -180t-7 -189q0 -69 9 -132t29 -123h-204l-40 139h-22q-27 -44 -61 -73.5t-72 -46.5t-78.5 -24t-81.5 -7q-64 0 -116.5 19t-90 55.5t-58 89t-20.5 120.5
q0 91 35 154.5t101 101.5q50 29 115.5 41.5t138.5 12.5q12 0 32.5 -1t44.5 -3.5t50.5 -7t52.5 -10.5q2 19 3.5 34.5t1.5 29.5q0 34 -9.5 56.5t-26.5 38.5t-52 26t-83 10q-42 0 -79 -5.5t-70.5 -14.5t-64.5 -21t-62 -25zM463 185q34 0 64.5 10t56 27t44 39t29.5 45v105
q-14 4 -31.5 8t-37 7t-39 5t-36.5 2q-48 0 -81 -12.5t-53 -32.5t-29 -44.5t-9 -48.5q0 -57 30.5 -83.5t91.5 -26.5z" />
    <glyph glyph-name="b" unicode="b" horiz-adv-x="1139" 
d="M150 1377h249v-521h22q21 24 50 43t63.5 32.5t73 20.5t78.5 7q176 0 269.5 -118.5t93.5 -347.5q0 -122 -33 -218t-96 -162.5t-154 -101.5t-207 -35q-66 0 -127.5 5t-114.5 14t-96 20t-71 23v1339zM399 213q36 -19 77.5 -23.5t89.5 -4.5q115 0 170.5 75.5t55.5 227.5
q0 129 -43.5 195.5t-137.5 66.5q-74 0 -130.5 -37.5t-81.5 -110.5v-389z" />
    <glyph glyph-name="c" unicode="c" horiz-adv-x="909" 
d="M859 63q-30 -21 -66.5 -37.5t-78 -28t-86.5 -18t-90 -6.5q-120 0 -205 36t-139 101.5t-79 156t-25 200.5q0 117 35 207.5t93 156.5t146 98.5t198 32.5q100 0 172 -21t125 -47l-60 -200q-48 19 -97.5 33.5t-110.5 14.5q-55 0 -99.5 -15t-76.5 -47q-33 -34 -51 -87
t-18 -126q0 -58 13 -108t41.5 -86.5t73 -57.5t107.5 -21q70 0 126.5 18.5t95.5 38.5z" />
    <glyph glyph-name="d" unicode="d" horiz-adv-x="1139" 
d="M981 328q0 -75 1.5 -155.5t16.5 -174.5h-174l-35 130h-22q-31 -41 -62.5 -70.5t-66.5 -48.5t-76.5 -27.5t-92.5 -8.5q-94 0 -165 33t-119 95t-72 150.5t-24 199.5q0 117 27.5 211.5t82.5 160.5t138 101.5t195 35.5q62 0 108 -10t91 -24v451h249v-1049zM533 182
q84 0 130.5 38.5t68.5 108.5v375q-17 12 -34 21t-36 15t-42 9t-53 3q-67 0 -110 -24t-67.5 -65t-33.5 -95t-9 -115q0 -57 9 -105.5t30.5 -84.5t57 -57.5t89.5 -23.5z" />
    <glyph glyph-name="e" unicode="e" horiz-adv-x="909" 
d="M824 60q-53 -40 -135 -63.5t-185 -23.5q-102 0 -180.5 25.5t-134.5 79.5q-66 65 -97.5 166t-31.5 218q0 121 35.5 216t90.5 158q56 64 135.5 95t173.5 31q88 0 155 -26.5t112.5 -75.5t68.5 -120t23 -159q0 -44 -4.5 -93t-12.5 -86h-523q0 -49 10.5 -93.5t36.5 -77.5
q26 -34 70 -48t98 -14q67 0 120.5 21t90.5 47zM481 766q-48 0 -79.5 -18t-50.5 -47.5t-27.5 -68t-9.5 -78.5h307q3 30 3 55q-2 71 -38.5 114t-104.5 43z" />
    <glyph glyph-name="f" unicode="f" horiz-adv-x="682" 
d="M35 936h146v147q0 76 24 132.5t64 91.5q45 39 104.5 54.5t125.5 15.5q43 0 75 -2t58 -6.5t50.5 -10.5t52.5 -15l-47 -194q-21 7 -38.5 13t-34 9.5t-34 5.5t-38.5 2q-30 0 -54.5 -11.5t-36.5 -25.5q-11 -14 -18.5 -43.5t-7.5 -66.5v-96h213v-208h-209v-728h-249v728h-146
v208z" />
    <glyph glyph-name="g" unicode="g" 
d="M902 35q0 -104 -23.5 -183t-73.5 -132t-127.5 -80.5t-185.5 -27.5q-69 0 -128.5 9t-109 23.5t-88 33.5t-66.5 39l98 178q42 -31 107 -55.5t145 -24.5q70 0 112 18t63.5 49t28 71.5t6.5 85.5v77h-22q-6 -13 -21 -29t-40 -30.5t-61 -24.5t-82 -10q-186 0 -280 112t-94 332
q0 245 125.5 369.5t366.5 124.5q116 0 200 -17t150 -39v-869zM484 216q36 0 63 8t47 22t34 33t25 42v402q-33 14 -64 21.5t-67 7.5q-54 0 -93.5 -15.5t-65.5 -48.5t-38.5 -85.5t-12.5 -126.5q0 -136 44.5 -198t127.5 -62z" />
    <glyph glyph-name="h" unicode="h" horiz-adv-x="1139" 
d="M753 0v515q0 39 -6 79t-23.5 73t-48.5 54t-81 21q-66 0 -116.5 -45t-78.5 -121v-576h-249v1377h249v-555h22q22 28 50 53.5t63 45t77.5 30.5t93.5 11q62 0 116 -19t94.5 -64t64 -120.5t23.5 -189.5v-569h-250z" />
    <glyph glyph-name="i" unicode="i" horiz-adv-x="569" 
d="M159 936h250v-936h-250v936zM127 1275q0 31 13.5 57t36.5 44.5t54 29t67 10.5q41 0 74 -10.5t56.5 -29t36.5 -44.5t13 -57q0 -69 -49 -105.5t-131 -36.5q-36 0 -67 9.5t-54 27.5t-36.5 44.5t-13.5 60.5z" />
    <glyph glyph-name="j" unicode="j" horiz-adv-x="682" 
d="M236 936h249v-942q0 -40 -4.5 -79t-13 -75t-21.5 -66.5t-30 -53.5q-20 -26 -47.5 -46.5t-61 -34t-70.5 -20.5t-74 -7q-29 0 -64 4t-61 12v208q8 -1 22 -1.5t22 -0.5q42 0 75 12t50 35q20 27 24.5 64t4.5 91v900zM204 1275q0 31 13.5 57t36.5 44.5t54 29t67 10.5
q41 0 74 -10.5t56.5 -29t36.5 -44.5t13 -57q0 -69 -49 -105.5t-131 -36.5q-36 0 -67 9.5t-54 27.5t-36.5 44.5t-13.5 60.5z" />
    <glyph glyph-name="k" unicode="k" horiz-adv-x="1139" 
d="M493 388h-92v-388h-251v1377h251v-846l86 34l311 371h277l-321 -354l-74 -82l78 -78l365 -422h-301z" />
    <glyph glyph-name="l" unicode="l" horiz-adv-x="569" 
d="M358 328q0 -69 16.5 -102.5t68.5 -33.5q24 0 50 7t56 19l15 -201q-54 -22 -107 -34t-116 -12q-112 0 -171.5 65t-59.5 179v1162h248v-1049z" />
    <glyph glyph-name="m" unicode="m" horiz-adv-x="1706" 
d="M738 0v488q0 41 -4 85.5t-18.5 82t-43 62t-77.5 24.5q-38 0 -70.5 -14t-57.5 -34.5t-42.5 -43.5t-25.5 -41v-609h-249v936h193l28 -130h24q23 30 51.5 58t64.5 50t81 35t101 13q95 0 163 -41.5t105 -140.5q52 87 131 134.5t176 47.5q73 0 130.5 -19.5t98 -68t62 -130
t21.5 -204.5v-540h-249v500q0 58 -7 103.5t-24 76t-45.5 46.5t-71.5 16q-38 0 -70 -14t-57 -35.5t-42.5 -47t-25.5 -48.5v-597h-250z" />
    <glyph glyph-name="n" unicode="n" horiz-adv-x="1139" 
d="M763 0v513q0 121 -41.5 175t-118.5 54q-39 0 -72 -15t-59 -38t-44.5 -50.5t-28.5 -52.5v-586h-249v936h196l27 -134h26q21 31 51.5 60t68 51.5t80.5 35.5t90 13q69 0 128 -18.5t102.5 -64t68.5 -122t25 -192.5v-565h-250z" />
    <glyph glyph-name="o" unicode="o" 
d="M60 467q0 109 29.5 200t87 156.5t142 102t194.5 36.5q112 0 197 -37.5t141 -104t84.5 -157t28.5 -196.5t-28.5 -196.5t-84.5 -157t-141 -104t-197 -37.5q-110 0 -194.5 36.5t-142 102t-87 156.5t-29.5 200zM317 467q0 -75 14 -129.5t39.5 -89t61.5 -51t81 -16.5
q53 0 90 21.5t60.5 59.5t34.5 90.5t11 114.5t-11 114.5t-34.5 90.5t-60.5 59.5t-90 21.5q-45 0 -81 -16.5t-61.5 -51t-39.5 -89t-14 -129.5z" />
    <glyph glyph-name="p" unicode="p" horiz-adv-x="1139" 
d="M150 936h178l31 -116h21q109 142 309 142q188 0 274 -120.5t86 -352.5q0 -117 -28 -212.5t-83.5 -163.5t-139.5 -105t-196 -37q-60 0 -109 11.5t-94 31.5v-381h-249v1303zM611 753q-85 0 -135.5 -37.5t-76.5 -118.5v-364q31 -24 73 -38.5t99 -14.5q60 0 102 15.5
t68.5 50.5t38.5 91.5t12 139.5q0 60 -8 110.5t-28.5 87t-55.5 57.5t-89 21z" />
    <glyph glyph-name="q" unicode="q" horiz-adv-x="1139" 
d="M989 -367h-250v455h-21q-36 -54 -97.5 -84.5t-157.5 -30.5q-187 0 -280 122.5t-93 351.5q0 251 130.5 382t384.5 131q55 0 110.5 -5t106 -13t94 -18t73.5 -21v-1270zM535 182q42 0 76 11t59 30t42.5 45t26.5 55v403q-32 14 -77.5 20t-96.5 6q-59 0 -100.5 -21t-67.5 -59
t-38 -93t-12 -122q0 -133 46 -204t142 -71z" />
    <glyph glyph-name="r" unicode="r" horiz-adv-x="909" 
d="M351 936l35 -136h23q35 48 70 78.5t70.5 48t72.5 24t78 6.5q40 0 85.5 -12.5t88.5 -41.5l-80 -230q-17 12 -37 22t-39.5 17.5t-38 11.5t-31.5 4q-66 0 -126 -32t-109 -109v-587h-249v936h187z" />
    <glyph glyph-name="s" unicode="s" horiz-adv-x="797" 
d="M123 252q32 -21 62.5 -36.5t62 -26t65.5 -15.5t73 -5q63 0 87.5 23.5t24.5 58.5q0 33 -18 54t-45.5 35t-61 23.5t-64.5 19.5q-38 12 -79.5 33.5t-76 55.5t-56.5 83.5t-22 117.5q0 70 25 124t71 91t111.5 55.5t145.5 18.5q40 0 75.5 -3.5t69 -11t68 -19.5t72.5 -28
l-52 -189q-54 21 -110 38t-119 17q-50 0 -78 -21t-28 -63q0 -34 19 -54t48 -32.5t64 -21t67 -18.5q43 -14 83 -35t71 -53t50 -77t19 -107q0 -68 -21 -125t-65.5 -98t-114 -64.5t-166.5 -23.5q-106 0 -191 24t-139 54z" />
    <glyph glyph-name="t" unicode="t" horiz-adv-x="682" 
d="M20 936h141v212l250 65v-277h231v-208h-231v-335q0 -56 4 -94.5t16 -62t32.5 -34t53.5 -10.5q17 0 33.5 3t31.5 8t27 11t19 12l44 -194q-10 -8 -33.5 -18.5t-54.5 -20t-66.5 -16t-70.5 -6.5q-67 0 -120 17t-90 52t-56.5 90t-19.5 130v468h-141v208z" />
    <glyph glyph-name="u" unicode="u" horiz-adv-x="1139" 
d="M386 936v-519q0 -38 5 -78t21 -72t45.5 -52.5t77.5 -20.5q39 0 72.5 15t59 37.5t42.5 47.5t25 45v597h250v-651q0 -75 7.5 -149.5t22.5 -135.5h-184l-49 146h-18q-54 -84 -134 -128.5t-180 -44.5q-73 0 -131 19.5t-98.5 65.5t-62 120.5t-21.5 184.5v573h250z" />
    <glyph glyph-name="v" unicode="v" 
d="M491 471l38 -115h6l37 118l170 462h268l-417 -944h-143l-435 944h291z" />
    <glyph glyph-name="w" unicode="w" horiz-adv-x="1479" 
d="M852 936l172 -465l39 -126h7l30 128l131 463h228l-299 -944h-180l-199 484l-33 101h-7l-36 -103l-187 -482h-189l-309 944h271l133 -442l35 -143h6l42 145l161 440h184z" />
    <glyph glyph-name="x" unicode="x" 
d="M333 479l-289 457h302l104 -181l75 -135l76 135l111 181h274l-291 -449l305 -487h-295l-124 209l-76 134l-80 -132l-126 -211h-275z" />
    <glyph glyph-name="y" unicode="y" 
d="M515 451l41 -130h5l31 130l156 485h256l-304 -848q-18 -50 -37 -99t-39 -93.5t-40 -82t-39 -65.5q-52 -75 -118 -105.5t-141 -30.5q-46 0 -103 16.5t-105 51.5l59 180q18 -10 36.5 -16.5t35 -10t30 -5t20.5 -1.5q28 0 61.5 10.5t58.5 37.5q20 21 38.5 60t29.5 77
l-422 924h301z" />
    <glyph glyph-name="z" unicode="z" horiz-adv-x="909" 
d="M69 213l388 413h-1l115 102h-477v208h747v-213l-380 -419h2l-118 -95h496v-209h-772v213z" />
    <glyph glyph-name="braceleft" unicode="{" horiz-adv-x="807" 
d="M262 180q0 99 -43.5 136t-124.5 37v205q81 0 124.5 39.5t43.5 124.5v394q0 104 53.5 173t170.5 69h251v-227h-106q-56 0 -82 -28t-26 -90v-362q0 -86 -45.5 -129.5t-102.5 -52.5v-20q57 -7 102.5 -58t45.5 -132v-359q0 -61 26 -89.5t84 -28.5h104v-227h-251
q-109 0 -166.5 62.5t-57.5 177.5v385z" />
    <glyph glyph-name="bar" unicode="|" horiz-adv-x="451" 
d="M113 1356h225v-1608h-225v1608z" />
    <glyph glyph-name="braceright" unicode="}" horiz-adv-x="807" 
d="M545 732q0 -98 43.5 -135t124.5 -37v-205q-81 0 -124.5 -40t-43.5 -125v-391q0 -105 -57.5 -174.5t-173.5 -69.5h-244v227h105q56 0 83 27.5t27 90.5v361q0 86 44.5 129.5t102.5 52.5v19q-56 9 -101.5 59t-45.5 131v361q0 60 -26 89t-86 29h-103v227h250
q110 0 167.5 -64.5t57.5 -177.5v-384z" />
    <glyph glyph-name="asciitilde" unicode="~" horiz-adv-x="1065" 
d="M38 736q99 73 177.5 102.5t145.5 29.5q60 0 112.5 -16.5t101 -36t95 -36t96.5 -16.5q38 0 78 13t85 45l99 -209q-76 -54 -138 -74.5t-116 -20.5q-58 0 -108.5 17.5t-99 40t-97 40t-101.5 17.5q-52 0 -111 -21.5t-128 -78.5z" />
    <glyph glyph-name="dieresis" horiz-adv-x="682" 
d="M-20 1273q0 67 41.5 107.5t107.5 40.5t106 -40.5t40 -107.5q0 -59 -40 -99.5t-106 -40.5t-107.5 40.5t-41.5 99.5zM410 1273q0 67 39.5 107.5t105.5 40.5q68 0 108 -40.5t40 -107.5q0 -59 -40 -99.5t-108 -40.5q-66 0 -105.5 40.5t-39.5 99.5z" />
    <glyph glyph-name="macron" 
d="M172 1315h680v-184h-680v184z" />
    <glyph glyph-name="acute" horiz-adv-x="682" 
d="M286 1412h274v-56l-244 -251h-147z" />
    <glyph glyph-name="AE" horiz-adv-x="2048" 
d="M909 960l-85 -139l-169 -269h258v408h-4zM913 320h-391l-206 -320h-306l894 1356h992v-252h-696v-295h644v-251h-644v-306h706v-252h-993v320z" />
    <glyph glyph-name="ae" horiz-adv-x="1479" 
d="M1389 60q-53 -40 -135 -63.5t-185 -23.5q-51 0 -103 9t-99.5 29t-88.5 53.5t-71 82.5h-19q-34 -47 -72.5 -77.5t-79.5 -49.5t-83 -26.5t-83 -7.5q-64 0 -116.5 20.5t-90 58t-58 89.5t-20.5 116q0 91 37.5 156t103.5 103q50 29 110.5 40t133.5 11q25 0 66.5 -4.5
t92.5 -17.5q2 19 3.5 34.5t1.5 29.5q0 67 -41.5 99t-108.5 32q-42 0 -78 -5.5t-68.5 -14.5t-63 -21t-61.5 -25l-66 189q54 23 99.5 38t90 23.5t90.5 12t100 3.5q93 0 154 -25.5t105 -71.5q60 51 126.5 78.5t147.5 27.5q88 0 155 -26.5t112.5 -75.5t68.5 -120t23 -159
q0 -44 -4.5 -93t-12.5 -86h-523q0 -49 10.5 -93.5t36.5 -77.5q26 -34 70 -48t98 -14q67 0 120.5 21t90.5 47zM453 185q34 0 62.5 10.5t51 27.5t39 38.5t25.5 44.5v105q-27 8 -57.5 15t-65.5 7q-48 0 -80 -12t-51.5 -31.5t-27.5 -43t-8 -47.5q0 -50 25.5 -82t86.5 -32z
M1046 766q-48 0 -79.5 -18t-50.5 -47.5t-27.5 -68t-9.5 -78.5h307q3 30 3 55q-2 71 -38.5 114t-104.5 43z" />
    <glyph glyph-name="dotlessi" horiz-adv-x="569" 
d="M160 936h250v-936h-250v936z" />
    <glyph glyph-name="hungarumlaut" horiz-adv-x="682" 
d="M83 1429h246v-27l-165 -227h-157zM478 1429h266v-27l-260 -227h-163z" />
    <glyph glyph-name="afii10023" unicode="&#x401;" horiz-adv-x="1366" 
d="M210 1356h993v-252h-706v-295h651v-251h-651v-306h715v-252h-1002v1356zM327 1585q0 53 38 84.5t123 31.5q81 0 119 -31.5t38 -84.5q0 -50 -38 -80t-119 -30q-85 0 -123 30t-38 80zM778 1585q0 53 38 84.5t119 31.5q85 0 123 -31.5t38 -84.5q0 -50 -38 -80t-123 -30
q-81 0 -119 30t-38 80z" />
    <glyph glyph-name="afii10051" unicode="&#x402;" horiz-adv-x="1638" 
d="M756 0h-287v1104h-429v252h1150v-252h-434v-256q16 5 44 12t65 13.5t81 11t94 4.5q48 0 97.5 -5t96.5 -17t90.5 -33t80.5 -52q63 -53 103 -135.5t40 -198.5q0 -122 -33 -209t-97.5 -143t-160.5 -82.5t-221 -26.5q-28 0 -54 0.5t-48 1.5t-38 2t-23 3v248q57 -3 85.5 -3.5
t45.5 -0.5q52 0 96 10t76 32.5t50 59.5t18 90q0 63 -23 103t-61.5 63.5t-88.5 32t-104 8.5q-22 0 -51 -2.5t-58.5 -7t-56.5 -11t-45 -14.5v-602z" />
    <glyph glyph-name="afii10052" unicode="&#x403;" horiz-adv-x="1303" 
d="M1213 1104h-706v-1104h-287v1356h993v-252zM797 1715h333v-60l-337 -169h-217z" />
    <glyph glyph-name="afii10053" unicode="&#x404;" horiz-adv-x="1389" 
d="M1152 808v-227h-727q20 -97 64 -165t106.5 -110.5t140 -61.5t164.5 -19q48 0 96.5 7t93.5 19t83 26.5t65 29.5l67 -239q-51 -27 -110 -45t-120 -29.5t-122 -16t-116 -4.5q-86 0 -173.5 17t-167.5 53.5t-149.5 93t-121 135t-81 179.5t-29.5 227q0 162 53.5 292
t148.5 221.5t227 141t290 49.5q63 0 126 -6t121 -16.5t109.5 -25t92.5 -30.5l-56 -240q-78 29 -171.5 48t-199.5 19q-74 0 -141.5 -18t-123.5 -56.5t-98 -100t-64 -148.5h723z" />
    <glyph glyph-name="afii10054" unicode="&#x405;" horiz-adv-x="1139" 
d="M847 372q0 39 -23 68t-62 52t-90.5 42t-109.5 38q-69 23 -138.5 55.5t-125 81t-90.5 115t-35 156.5q0 102 35.5 177.5t101 125.5t157 74.5t202.5 24.5q130 0 243 -22q115 -23 189 -63l-91 -240q-24 14 -60.5 28t-81.5 25t-97.5 18t-107.5 7q-97 0 -150 -34t-53 -94
q0 -33 15 -57.5t41 -44.5t59.5 -35.5t71 -29t76 -27t73.5 -28.5q63 -27 123.5 -61t108.5 -79.5t77 -104.5t29 -135q0 -112 -39 -193.5t-109.5 -134.5t-169 -78.5t-216.5 -25.5q-79 0 -151 9t-132 22t-105.5 28.5t-71.5 29.5l95 250q21 -12 58.5 -28t84.5 -30t100.5 -24
t106.5 -10q130 0 196 37t66 115z" />
    <glyph glyph-name="afii10055" unicode="&#x406;" horiz-adv-x="797" 
d="M256 1201h-161v155h607v-155h-160v-1046h160v-155h-607v155h161v1046z" />
    <glyph glyph-name="afii10056" unicode="&#x407;" horiz-adv-x="797" 
d="M256 1201h-161v155h607v-155h-160v-1046h160v-155h-607v155h161v1046zM15 1585q0 53 38 84.5t123 31.5q81 0 119 -31.5t38 -84.5q0 -50 -38 -80t-119 -30q-85 0 -123 30t-38 80zM466 1585q0 53 38 84.5t119 31.5q85 0 123 -31.5t38 -84.5q0 -50 -38 -80t-123 -30
q-81 0 -119 30t-38 80z" />
    <glyph glyph-name="afii10057" unicode="&#x408;" 
d="M537 1356h287v-968q0 -96 -34 -179.5t-98 -141.5q-28 -25 -64.5 -42.5t-77.5 -29t-85 -16.5t-86 -5q-38 0 -79 4t-84 14.5t-86.5 29.5t-85.5 50l94 232q38 -28 69.5 -43.5t57 -23t46.5 -9t38 -1.5q48 0 83.5 15t59 42t34.5 65t11 83v924z" />
    <glyph glyph-name="afii10058" unicode="&#x409;" horiz-adv-x="2054" 
d="M964 1104h-300q-9 -185 -19.5 -332.5t-29.5 -265.5t-49 -209.5t-78 -163.5q-31 -44 -69.5 -73t-78 -45.5t-78.5 -23t-72 -6.5q-37 0 -70.5 7t-69.5 23l32 240q11 -3 23 -5t25 -2q33 0 67 14.5t59 51.5q31 42 54.5 122t41 206.5t28 303t14.5 410.5h857v-482q10 2 33 4.5
t51.5 5t58 4t52.5 1.5q105 0 199.5 -19.5t166 -69.5t113.5 -135.5t42 -215.5q0 -232 -160 -350q-40 -30 -84.5 -52t-97 -36.5t-114 -22t-133.5 -7.5q-28 0 -77.5 1t-108 4t-119 9.5t-109.5 17.5v1091zM1251 242q23 -4 61 -6.5t80 -2.5q59 0 108.5 9.5t85.5 33t56.5 63.5
t20.5 101q0 63 -21.5 102t-58 60t-86 28t-105.5 7q-15 0 -36 -2t-41.5 -4.5t-38 -5t-25.5 -4.5v-379z" />
    <glyph glyph-name="afii10059" unicode="&#x40a;" horiz-adv-x="2052" 
d="M959 582h-472v-582h-287v1356h287v-521h472v521h287v-504q11 2 33.5 4.5t50.5 5t58 4.5t56 2q104 0 201 -18.5t172 -66.5t120 -131.5t45 -213.5q0 -117 -40.5 -203t-118 -142.5t-190.5 -84t-259 -27.5q-30 0 -80 1.5t-108 5t-118 8t-109 10.5v576zM1246 242
q23 -4 60.5 -6.5t80.5 -2.5q63 0 116 8t92 30t60.5 59t21.5 96t-22.5 96t-61.5 58t-92 28.5t-114 7.5q-15 0 -35.5 -2t-41.5 -4.5t-38.5 -5.5t-25.5 -5v-357z" />
    <glyph glyph-name="afii10060" unicode="&#x40b;" horiz-adv-x="1638" 
d="M756 0h-287v1104h-429v252h1150v-252h-434v-328q53 32 145.5 56t218.5 24q88 0 161 -21.5t126.5 -66t84.5 -116t31 -170.5v-482h-287v388q0 111 -50 169.5t-163 58.5q-81 0 -154 -17t-113 -49v-550z" />
    <glyph glyph-name="afii10061" unicode="&#x40c;" horiz-adv-x="1485" 
d="M587 573h-131v-573h-286v1356h286v-597l116 30l541 567h359l-576 -571l-80 -74l85 -78l628 -633h-386zM766 1715h333v-60l-337 -169h-217z" />
    <glyph glyph-name="afii10062" unicode="&#x40e;" horiz-adv-x="1503" 
d="M714 785l68 -152h12l65 160l290 563h300l-436 -825q-24 -46 -57 -105t-67 -117t-65.5 -107.5t-53.5 -75.5q-59 -71 -126.5 -105t-160.5 -34q-60 0 -117 15.5t-99 38.5l72 231q34 -15 70.5 -24.5t69.5 -9.5q51 0 95 33t72 103l-581 982h336zM615 1748q11 -60 51.5 -85.5
t105.5 -25.5q140 0 157 109l235 -33q-24 -126 -122.5 -181.5t-271.5 -55.5q-85 0 -156.5 11t-125.5 38t-88 70.5t-44 111.5z" />
    <glyph glyph-name="afii10145" unicode="&#x40f;" horiz-adv-x="1593" 
d="M497 1356v-1104h600v1104h286v-1356h-457l-31 -337h-183l-44 337h-458v1356h287z" />
    <glyph glyph-name="afii10017" unicode="&#x410;" horiz-adv-x="1479" 
d="M1013 288h-563l-123 -288h-287l593 1365h211l595 -1365h-304zM547 515h370l-119 283l-61 175h-8l-62 -177z" />
    <glyph glyph-name="afii10018" unicode="&#x411;" horiz-adv-x="1354" 
d="M210 1356h928v-252h-641v-261q18 3 44.5 5.5t55.5 4.5t58.5 3.5t54.5 1.5q118 0 217.5 -24.5t171 -77t111.5 -136t40 -201.5q0 -114 -42.5 -196.5t-119.5 -136.5t-186 -79.5t-242 -25.5q-36 0 -93.5 1.5t-121.5 5.5t-126.5 10t-108.5 15v1343zM673 213q54 0 103.5 11
t87.5 35.5t60.5 63t22.5 93.5q0 64 -23.5 104.5t-63.5 64t-93.5 32.5t-113.5 9q-19 0 -41 -1.5t-43 -3.5t-40 -4.5t-32 -4.5v-389q12 -2 32.5 -4t45 -3.5t50 -2t48.5 -0.5z" />
    <glyph glyph-name="afii10019" unicode="&#x412;" horiz-adv-x="1366" 
d="M1219 1036q0 -50 -14.5 -99.5t-46 -92t-81.5 -74t-122 -44.5v-11q64 -6 120.5 -29.5t98.5 -65t66 -101t24 -138.5q-1 -106 -50 -181.5t-129 -124t-182 -71.5t-209 -23h-94.5t-127.5 2.5t-137.5 8.5t-124.5 17v1337q41 6 95.5 11.5t116 9t126.5 6t127 2.5q67 0 133 -6
t126.5 -21t112.5 -40t90 -62.5t60 -89.5t22 -120zM691 213q54 0 103 10t86.5 32t60 56.5t22.5 83.5q0 62 -27 98.5t-70.5 55t-97 23.5t-107.5 5h-175v-352q10 -5 35 -7t56 -3.5t62 -1.5h52zM599 791h33t36.5 0.5t35.5 1.5t31 3q82 26 137 69q56 44 56 118q0 51 -23 82
t-60 48.5t-83.5 23t-93.5 5.5q-55 0 -105 -1.5t-77 -5.5v-344h113z" />
    <glyph glyph-name="afii10020" unicode="&#x413;" horiz-adv-x="1303" 
d="M1213 1104h-706v-1104h-287v1356h993v-252z" />
    <glyph glyph-name="afii10021" unicode="&#x414;" horiz-adv-x="1409" 
d="M1389 -240h-203l-32 240h-880l-31 -240h-203v492h137q10 14 28.5 50.5t40.5 98.5t44 151t39 207t25.5 266.5t3.5 330.5h846v-1104h185v-492zM916 252v852h-295q-3 -95 -11.5 -207t-26 -226.5t-46.5 -223t-72 -195.5h451z" />
    <glyph glyph-name="afii10022" unicode="&#x415;" horiz-adv-x="1366" 
d="M210 1356h993v-252h-706v-295h651v-251h-651v-306h715v-252h-1002v1356z" />
    <glyph glyph-name="afii10024" unicode="&#x416;" horiz-adv-x="2025" 
d="M866 1356h272v-599l94 27l388 572h325l-424 -595l-51 -68l72 -83l462 -610h-347l-419 582h-100v-582h-272v606l-89 -27l-420 -579h-336l459 591l65 78l-61 72l-440 615h336l385 -576h101v576z" />
    <glyph glyph-name="afii10025" unicode="&#x417;" horiz-adv-x="1081" 
d="M251 595v218h30q40 0 78 0.5t74 4t70 12t66 24.5q39 20 61.5 51t22.5 73q0 44 -18 73.5t-45 44.5q-31 17 -68 24t-90 7q-46 0 -89.5 -7t-82 -18t-69.5 -24t-52 -25l-72 244q21 10 61.5 24t94.5 27t118 22t132 9q93 0 180 -15.5t154.5 -54.5t108.5 -105t41 -166
q0 -114 -65 -191.5t-179 -116.5v-11q137 -22 212.5 -106.5t75.5 -224.5q0 -109 -48 -187t-127 -129q-78 -50 -180 -74.5t-207 -24.5q-70 0 -130.5 7t-110.5 18.5t-90.5 25.5t-69.5 28l74 248q44 -19 83.5 -33t79 -23.5t80 -14t87.5 -4.5q45 0 90.5 9.5t82 31t60 57
t23.5 87.5q0 31 -8.5 57t-28.5 47.5t-52.5 37t-80.5 25.5q-65 13 -124.5 15.5t-122.5 2.5h-30z" />
    <glyph glyph-name="afii10026" unicode="&#x418;" horiz-adv-x="1593" 
d="M1095 748l13 162h-7l-99 -161l-580 -749h-212v1356h286v-730l-17 -171h10l105 167l573 734h216v-1356h-288v748z" />
    <glyph glyph-name="afii10027" unicode="&#x419;" horiz-adv-x="1593" 
d="M1095 748l13 162h-7l-99 -161l-580 -749h-212v1356h286v-730l-17 -171h10l105 167l573 734h216v-1356h-288v748zM681 1748q11 -60 51.5 -85.5t105.5 -25.5q140 0 157 109l235 -33q-24 -126 -122.5 -181.5t-271.5 -55.5q-85 0 -156.5 11t-125.5 38t-88 70.5t-44 111.5z
" />
    <glyph glyph-name="afii10028" unicode="&#x41a;" horiz-adv-x="1485" 
d="M627 573h-131v-573h-286v1356h286v-597l114 30l456 567h359l-489 -571l-80 -74l85 -78l528 -633h-382z" />
    <glyph glyph-name="afii10029" unicode="&#x41b;" horiz-adv-x="1526" 
d="M1040 1104h-356q-10 -185 -22.5 -333t-33 -265.5t-52 -209t-78.5 -163.5q-32 -44 -70.5 -73t-78 -45.5t-78 -23t-71.5 -6.5q-40 0 -74 7.5t-66 22.5l31 240q21 -7 50 -7q33 0 66 15.5t58 50.5q31 42 56.5 122t44.5 206t31 302.5t16 411.5h913v-1356h-286v1104z" />
    <glyph glyph-name="afii10030" unicode="&#x41c;" horiz-adv-x="1933" 
d="M1436 690l13 231h-7l-88 -153l-347 -526h-89l-367 528l-83 149h-6l19 -227v-692h-271v1356h260l432 -626l74 -119h9l65 123l415 622h258v-1356h-287v690z" />
    <glyph glyph-name="afii10031" unicode="&#x41d;" horiz-adv-x="1593" 
d="M1096 560h-600v-560h-286v1356h286v-545h600v545h287v-1356h-287v560z" />
    <glyph glyph-name="afii10032" unicode="&#x41e;" horiz-adv-x="1593" 
d="M115 676q0 168 49 299.5t138.5 221.5t214.5 137.5t278 47.5q162 0 288.5 -51t214.5 -144t134 -222.5t46 -286.5q0 -158 -46 -288t-134 -223t-214.5 -144t-288.5 -51q-153 0 -278 47.5t-214.5 137.5t-138.5 221t-49 298zM418 678q0 -117 27 -203t76.5 -142t119 -83
t154.5 -27q97 0 168.5 35t118 96t69 144.5t22.5 179.5t-22.5 179t-69 143.5t-118 95.5t-168.5 35q-85 0 -154.5 -27t-119 -83t-76.5 -141.5t-27 -201.5z" />
    <glyph glyph-name="afii10033" unicode="&#x41f;" horiz-adv-x="1593" 
d="M1093 1104h-592v-1104h-287v1356h1165v-1356h-286v1104z" />
    <glyph glyph-name="afii10034" unicode="&#x420;" horiz-adv-x="1251" 
d="M184 1342q88 16 190.5 24.5t208.5 8.5q57 0 116.5 -5.5t116.5 -18t108 -34t92 -53.5q69 -54 111 -139t42 -203q0 -126 -47 -216t-125.5 -147t-180 -83.5t-209.5 -26.5q-10 0 -28.5 0.5t-38.5 1.5t-39 2.5t-30 3.5v-457h-287v1342zM601 1123q-42 0 -74.5 -2.5t-55.5 -6.5
v-403q8 -2 23.5 -4t32.5 -3.5t33 -2t25 -0.5q57 0 107.5 9.5t88.5 34t60.5 66t22.5 105.5q0 59 -20.5 99t-56 64t-83.5 34t-103 10z" />
    <glyph glyph-name="afii10035" unicode="&#x421;" horiz-adv-x="1479" 
d="M1368 103q-61 -35 -125.5 -59.5t-127 -40.5t-120 -23t-105.5 -7q-66 0 -138 5.5t-143 22t-137.5 46.5t-122.5 79q-51 44 -93 100t-72 124.5t-46.5 150.5t-16.5 179q0 153 51.5 281t155.5 231q50 49 111 85t130 59t144.5 34.5t154.5 11.5q127 0 245 -26.5t235 -83.5
l-83 -244q-95 51 -190.5 77t-195.5 26q-91 0 -176 -23t-150 -86q-58 -57 -93 -145t-35 -197q0 -114 36.5 -207t102.5 -148q38 -32 76.5 -51.5t80.5 -30t89.5 -14.5t102.5 -4q48 0 97 8.5t97.5 23.5t94 35.5t85.5 44.5z" />
    <glyph glyph-name="afii10036" unicode="&#x422;" horiz-adv-x="1366" 
d="M1296 1104h-470v-1104h-287v1104h-469v252h1226v-252z" />
    <glyph glyph-name="afii10037" unicode="&#x423;" horiz-adv-x="1503" 
d="M714 785l68 -152h12l65 160l290 563h300l-436 -825q-24 -46 -57 -105t-67 -117t-65.5 -107.5t-53.5 -75.5q-59 -71 -126.5 -105t-160.5 -34q-60 0 -117 15.5t-99 38.5l72 231q34 -15 70.5 -24.5t69.5 -9.5q51 0 95 33t72 103l-581 982h336z" />
    <glyph glyph-name="afii10038" unicode="&#x424;" horiz-adv-x="1759" 
d="M736 148q-40 -5 -86 -8t-94 -3q-99 0 -186 33t-152 100.5t-102.5 169t-37.5 238.5q0 130 37.5 234.5t106 177t163.5 111.5t210 39q32 0 70.5 -2.5t70.5 -8.5v166h285v-171q40 8 87.5 12t95.5 4q100 0 187.5 -35t151.5 -103.5t101 -170t37 -234.5q0 -135 -41.5 -239.5
t-111 -175.5t-161.5 -108t-194 -37q-18 0 -38.5 1t-41.5 2.5t-40 4.5t-32 6v-190h-285v187zM1132 1013q-29 0 -61 -2t-61 -8v-635q18 -4 46 -4h54q57 0 108 19t89 59.5t60 103t22 149.5q0 151 -69 234q-34 42 -82 63t-106 21zM634 364q9 0 23 0.5t30 1.5t32.5 3t29.5 5v633
q-23 3 -50.5 4.5t-55.5 1.5q-56 0 -105.5 -19.5t-87.5 -60t-60 -103.5t-22 -150q0 -153 73 -235q37 -41 86 -61t107 -20z" />
    <glyph glyph-name="afii10039" unicode="&#x425;" horiz-adv-x="1479" 
d="M549 689l-451 667h346l247 -383l63 -103l64 103l268 383h316l-476 -650l498 -706h-343l-289 412l-69 100l-68 -100l-284 -412h-316z" />
    <glyph glyph-name="afii10040" unicode="&#x426;" horiz-adv-x="1593" 
d="M1533 -240h-204l-31 240h-1088v1356h286v-1104h562v1104h286v-1104h189v-492z" />
    <glyph glyph-name="afii10041" unicode="&#x427;" horiz-adv-x="1503" 
d="M453 1356v-419q0 -61 18 -105t51 -72.5t79.5 -42t103.5 -13.5q40 0 81.5 5t80.5 13.5t74.5 21t64.5 27.5v585h287v-1356h-287v542q-72 -32 -175 -54.5t-232 -22.5q-89 0 -167.5 21.5t-137.5 67.5t-93.5 117.5t-34.5 172.5v512h287z" />
    <glyph glyph-name="afii10042" unicode="&#x428;" horiz-adv-x="2249" 
d="M220 0v1356h286v-1104h475v1104h287v-1104h475v1104h286v-1356h-1809z" />
    <glyph glyph-name="afii10043" unicode="&#x429;" horiz-adv-x="2249" 
d="M210 0v1356h286v-1104h470v1104h287v-1104h470v1104h286v-1104h198v-492h-203l-32 240h-1762z" />
    <glyph glyph-name="afii10044" unicode="&#x42a;" horiz-adv-x="1567" 
d="M414 1104h-346v252h633v-482q10 2 32.5 4.5t50.5 5t57.5 4t53.5 1.5q45 0 97.5 -5t105 -16.5t102.5 -30t90 -45.5q39 -26 71.5 -61.5t56 -80t36.5 -96.5t13 -112q0 -117 -40 -201.5t-121 -144.5q-80 -60 -191 -87.5t-257 -27.5q-28 0 -82 1t-118 4.5t-129 10t-115 16.5
v1091zM873 233q58 0 111 9t92.5 32t63 62.5t23.5 100.5q0 63 -24.5 102t-65 60.5t-93 29.5t-107.5 8q-15 0 -41 -1.5t-52.5 -4t-49 -5.5t-29.5 -5v-379q12 -2 32 -3.5t44 -3t49.5 -2t46.5 -0.5z" />
    <glyph glyph-name="afii10045" unicode="&#x42b;" horiz-adv-x="2011" 
d="M1501 1356h286v-1356h-286v1356zM224 1356h287v-482q10 2 33 4.5t51 5t57.5 4t53.5 1.5q45 0 97.5 -5t105 -16.5t102.5 -30t90 -45.5q39 -26 71.5 -61.5t56 -80t36.5 -96.5t13 -112q0 -117 -40 -201.5t-121 -144.5q-80 -60 -191 -87.5t-257 -27.5q-28 0 -82.5 1t-118 4.5
t-129 10t-115.5 16.5v1343zM684 233q58 0 111 10.5t92.5 34.5t63 63t23.5 96q0 59 -24.5 97.5t-65 61.5t-93 32t-107.5 9q-15 0 -41.5 -1.5t-53 -4t-49 -5.5t-29.5 -5v-379q12 -2 32.5 -3.5t44.5 -3t49.5 -2t46.5 -0.5z" />
    <glyph glyph-name="afii10046" unicode="&#x42c;" horiz-adv-x="1354" 
d="M210 1356h287v-482q10 2 33 4.5t51 5t57.5 4t53.5 1.5q45 0 97.5 -5t105 -16.5t102.5 -30t90 -45.5q39 -26 71.5 -61.5t56 -80t36.5 -96.5t13 -112q0 -117 -40 -201.5t-121 -144.5q-80 -60 -191 -87.5t-257 -27.5q-28 0 -82.5 1.5t-118 5t-129 9.5t-115.5 16v1343z
M660 233q58 0 112.5 9t96 32t66.5 62.5t25 100.5q0 63 -26 102t-68.5 60.5t-96.5 29.5t-109 8q-15 0 -40 -1.5t-49.5 -4t-45.5 -5.5t-28 -5v-379q12 -2 30.5 -3.5t41 -3t46.5 -2t45 -0.5z" />
    <glyph glyph-name="afii10047" unicode="&#x42d;" horiz-adv-x="1389" 
d="M316 802h670q-11 72 -43 132t-84 104t-124 68.5t-162 24.5q-125 0 -227.5 -24.5t-190.5 -71.5l-62 239q56 26 120 46.5t129 34t127.5 20.5t116.5 7q89 0 174.5 -16t162 -50.5t141 -89t111 -131.5t73 -178t26.5 -229q0 -184 -57 -318.5t-156.5 -222.5t-234.5 -131
t-291 -43q-60 0 -122.5 6.5t-122 18.5t-112.5 28.5t-94 36.5l75 246q35 -18 78.5 -33.5t93 -26.5t103 -17.5t107.5 -6.5q81 0 155 19.5t133 61.5t100.5 108.5t58.5 160.5h-672v227z" />
    <glyph glyph-name="afii10048" unicode="&#x42e;" horiz-adv-x="2306" 
d="M507 811h255q20 136 79 242.5t150 179.5t210.5 111t261.5 38q167 0 299.5 -51t224.5 -144t140.5 -222.5t48.5 -286.5q0 -158 -48.5 -288t-140.5 -223t-224 -144t-300 -51q-144 0 -265.5 39t-213 114t-149.5 184.5t-75 250.5h-253v-560h-287v1356h287v-545zM1056 678
q0 -117 29.5 -203t83 -142t128.5 -83t166 -27q103 0 179.5 35t127.5 96t76 144.5t25 179.5t-25 179t-76 143.5t-127.5 95.5t-179.5 35q-90 0 -165 -27t-129 -83t-83.5 -141.5t-29.5 -201.5z" />
    <glyph glyph-name="afii10049" unicode="&#x42f;" horiz-adv-x="1479" 
d="M1259 0h-286v530l-194 -36l-380 -494h-343l357 443l93 101q-43 11 -94.5 38t-96 72.5t-74.5 111t-30 154.5q0 67 16.5 124t45.5 104t70 83.5t91 63.5q40 22 88 37t101.5 24.5t110 14t113.5 4.5q35 0 86 -1t108 -5t114 -10.5t104 -16.5v-1342zM800 1123q-56 0 -107.5 -7.5
t-89.5 -30.5t-63 -60.5t-25 -98.5q0 -58 24 -99.5t65 -65.5q42 -25 96 -34.5t114 -9.5h159v399q-12 2 -33 3.5t-46 2l-50 1t-44 0.5z" />
    <glyph glyph-name="afii10065" unicode="&#x430;" 
d="M147 876q57 25 107 40t98 23.5t97 11t103 2.5q99 0 166.5 -23.5t109 -67t59.5 -104.5t18 -136q0 -91 -7 -180t-7 -189q0 -69 9 -132t29 -123h-204l-40 139h-22q-27 -44 -61 -73.5t-72 -46.5t-78.5 -24t-81.5 -7q-64 0 -116.5 19t-90 55.5t-58 89t-20.5 120.5
q0 91 35 154.5t101 101.5q50 29 115.5 41.5t138.5 12.5q12 0 32.5 -1t44.5 -3.5t50.5 -7t52.5 -10.5q2 19 3.5 34.5t1.5 29.5q0 34 -9.5 56.5t-26.5 38.5t-52 26t-83 10q-42 0 -79 -5.5t-70.5 -14.5t-64.5 -21t-62 -25zM463 185q34 0 64.5 10t56 27t44 39t29.5 45v105
q-14 4 -31.5 8t-37 7t-39 5t-36.5 2q-48 0 -81 -12.5t-53 -32.5t-29 -44.5t-9 -48.5q0 -57 30.5 -83.5t91.5 -26.5z" />
    <glyph glyph-name="afii10066" unicode="&#x431;" 
d="M279 736q22 34 50 62.5t64.5 49.5t82 32.5t101.5 11.5q92 0 164 -29.5t121.5 -84t75.5 -130.5t26 -169q0 -125 -33.5 -219.5t-93 -158t-141.5 -96t-179 -32.5q-110 0 -194.5 33.5t-142 104t-87 179.5t-29.5 259q0 161 22 276.5t61 196t91.5 131t113.5 79.5t127 42t132 20
q103 11 169.5 23.5t98.5 38.5l9 -216q-26 -20 -63.5 -30.5t-79.5 -16t-83.5 -7.5t-74.5 -4q-78 -5 -137 -27t-100 -63.5t-63.5 -104.5t-26.5 -151h19zM321 437q0 -52 11.5 -98.5t34.5 -81t59 -55t85 -20.5q51 0 88.5 20.5t62 56.5t36 84t11.5 102q0 51 -12 95t-36 76t-60 50
t-84 18q-55 0 -92.5 -20.5t-60.5 -55t-33 -79t-10 -92.5z" />
    <glyph glyph-name="afii10067" unicode="&#x432;" horiz-adv-x="1106" 
d="M150 936q73 5 176.5 10t221.5 5q43 0 89.5 -2.5t91.5 -11t86 -24.5t71.5 -42t48.5 -63.5t18 -89.5q0 -33 -7.5 -66t-25.5 -62.5t-48.5 -53.5t-77.5 -38v-7q114 -20 168 -79.5t54 -149.5q0 -70 -29 -122.5t-89 -87t-152.5 -51.5t-220.5 -17q-100 0 -196.5 5t-178.5 11v936
zM394 190q36 -6 77 -8t77 -2q31 0 68 3t68.5 14.5t52.5 34t21 62.5q0 39 -20 61.5t-49.5 34t-63.5 14.5t-62 3h-169v-217zM566 554q72 0 109 27.5t37 72.5q0 24 -8 43t-28 31.5t-53 19.5t-83 7q-21 0 -43 -1t-41.5 -2t-35.5 -2t-26 -2v-194h172z" />
    <glyph glyph-name="afii10068" unicode="&#x433;" horiz-adv-x="930" 
d="M870 714h-446v-714h-264v936h710v-222z" />
    <glyph glyph-name="afii10069" unicode="&#x434;" horiz-adv-x="1036" 
d="M1026 -213h-174l-32 213h-594l-34 -213h-175v434h102q28 57 49 124.5t34.5 153t20 193t6.5 244.5h671v-715h126v-434zM652 209v519h-209q-3 -42 -6 -104t-11 -133t-23.5 -144.5t-42.5 -137.5h292z" />
    <glyph glyph-name="afii10070" unicode="&#x435;" horiz-adv-x="909" 
d="M824 60q-53 -40 -135 -63.5t-185 -23.5q-102 0 -180.5 25.5t-134.5 79.5q-66 65 -97.5 166t-31.5 218q0 121 35.5 216t90.5 158q56 64 135.5 95t173.5 31q88 0 155 -26.5t112.5 -75.5t68.5 -120t23 -159q0 -44 -4.5 -93t-12.5 -86h-523q0 -49 10.5 -93.5t36.5 -77.5
q26 -34 70 -48t98 -14q67 0 120.5 21t90.5 47zM481 766q-48 0 -79.5 -18t-50.5 -47.5t-27.5 -68t-9.5 -78.5h307q3 30 3 55q-2 71 -38.5 114t-104.5 43z" />
    <glyph glyph-name="afii10072" unicode="&#x436;" horiz-adv-x="1485" 
d="M529 381l-236 -381h-283l285 424l39 61l-65 78l-249 373h272l226 -380h98v380h235v-405l88 32l227 373h268l-253 -375l-43 -66l62 -78l275 -417h-289l-237 388h-98v-388h-235v411z" />
    <glyph glyph-name="afii10073" unicode="&#x437;" horiz-adv-x="823" 
d="M234 388v168h76q81 0 127 25.5t46 70.5q0 26 -13 43.5t-35 28.5t-51 15.5t-61 4.5q-65 0 -119 -17.5t-94 -36.5l-49 185q74 42 157.5 60t172.5 18q174 0 258.5 -64.5t84.5 -177.5q0 -31 -11 -61.5t-32 -58t-51 -50t-67 -37.5v-15q100 -22 150 -77.5t50 -151.5
q0 -57 -24.5 -108.5t-76 -90.5t-131 -62t-188.5 -23q-54 0 -100 6.5t-84.5 17.5t-71 24.5t-59.5 27.5q12 48 26 96t30 97q48 -26 108 -43t141 -17q180 0 180 109q0 24 -11 41.5t-38 29.5t-73 17.5t-115 5.5h-52z" />
    <glyph glyph-name="afii10074" unicode="&#x438;" horiz-adv-x="1180" 
d="M780 422l7 129l-108 -127l-379 -424h-150v936h249v-441l-4 -128l105 128l380 441h150v-936h-250v422z" />
    <glyph glyph-name="afii10075" unicode="&#x439;" horiz-adv-x="1180" 
d="M780 422l7 129l-108 -127l-379 -424h-150v936h249v-441l-4 -128l105 128l380 441h150v-936h-250v422zM459 1358q7 -41 20 -67.5t31 -43t41.5 -23t52.5 -6.5q61 0 95 30.5t50 107.5l202 -53q-14 -65 -47.5 -113t-81 -79.5t-106 -47t-121.5 -15.5q-65 0 -125 14t-109 44.5
t-83.5 79t-48.5 117.5z" />
    <glyph glyph-name="afii10076" unicode="&#x43a;" horiz-adv-x="1180" 
d="M518 388h-108v-388h-250v936h250v-405l99 34l313 371h288l-325 -360l-70 -75l78 -80l357 -421h-302z" />
    <glyph glyph-name="afii10077" unicode="&#x43b;" horiz-adv-x="1149" 
d="M751 714h-238q-6 -149 -23 -281t-54 -230.5t-98.5 -155.5t-157.5 -57q-112 0 -160 24l36 221q30 -9 56 -9q42 0 74.5 30.5t53.5 109.5q10 39 19 92.5t15.5 123.5t12 158t8.5 196h704v-936h-248v714z" />
    <glyph glyph-name="afii10078" unicode="&#x43c;" horiz-adv-x="1395" 
d="M1020 425l8 193h-3l-99 -149l-189 -300h-88l-208 300l-84 149h-4l6 -191v-427h-221v936h263l232 -350l71 -117h2l72 123l217 344h262v-936h-237v425z" />
    <glyph glyph-name="afii10079" unicode="&#x43d;" horiz-adv-x="1180" 
d="M781 362h-381v-362h-250v936h250v-348h381v348h249v-936h-249v362z" />
    <glyph glyph-name="afii10080" unicode="&#x43e;" 
d="M60 467q0 109 29.5 200t87 156.5t142 102t194.5 36.5q112 0 197 -37.5t141 -104t84.5 -157t28.5 -196.5t-28.5 -196.5t-84.5 -157t-141 -104t-197 -37.5q-110 0 -194.5 36.5t-142 102t-87 156.5t-29.5 200zM317 467q0 -75 14 -129.5t39.5 -89t61.5 -51t81 -16.5
q53 0 90 21.5t60.5 59.5t34.5 90.5t11 114.5t-11 114.5t-34.5 90.5t-60.5 59.5t-90 21.5q-45 0 -81 -16.5t-61.5 -51t-39.5 -89t-14 -129.5z" />
    <glyph glyph-name="afii10081" unicode="&#x43f;" horiz-adv-x="1180" 
d="M780 714h-380v-714h-250v936h880v-936h-250v714z" />
    <glyph glyph-name="afii10082" unicode="&#x440;" horiz-adv-x="1139" 
d="M150 936h178l31 -116h21q109 142 309 142q188 0 274 -120.5t86 -352.5q0 -117 -28 -212.5t-83.5 -163.5t-139.5 -105t-196 -37q-60 0 -109 11.5t-94 31.5v-381h-249v1303zM611 753q-85 0 -135.5 -37.5t-76.5 -118.5v-364q31 -24 73 -38.5t99 -14.5q60 0 102 15.5
t68.5 50.5t38.5 91.5t12 139.5q0 60 -8 110.5t-28.5 87t-55.5 57.5t-89 21z" />
    <glyph glyph-name="afii10083" unicode="&#x441;" horiz-adv-x="909" 
d="M859 63q-30 -21 -66.5 -37.5t-78 -28t-86.5 -18t-90 -6.5q-120 0 -205 36t-139 101.5t-79 156t-25 200.5q0 117 35 207.5t93 156.5t146 98.5t198 32.5q100 0 172 -21t125 -47l-60 -200q-48 19 -97.5 33.5t-110.5 14.5q-55 0 -99.5 -15t-76.5 -47q-33 -34 -51 -87
t-18 -126q0 -58 13 -108t41.5 -86.5t73 -57.5t107.5 -21q70 0 126.5 18.5t95.5 38.5z" />
    <glyph glyph-name="afii10084" unicode="&#x442;" horiz-adv-x="1006" 
d="M961 714h-328v-714h-260v714h-328v222h916v-222z" />
    <glyph glyph-name="afii10085" unicode="&#x443;" 
d="M515 451l41 -130h5l31 130l156 485h256l-304 -848q-18 -50 -37 -99t-39 -93.5t-40 -82t-39 -65.5q-52 -75 -118 -105.5t-141 -30.5q-46 0 -103 16.5t-105 51.5l59 180q18 -10 36.5 -16.5t35 -10t30 -5t20.5 -1.5q28 0 61.5 10.5t58.5 37.5q20 21 38.5 60t29.5 77
l-422 924h301z" />
    <glyph glyph-name="afii10086" unicode="&#x444;" horiz-adv-x="1417" 
d="M588 -5q-46 -15 -83.5 -18.5t-68.5 -3.5q-85 0 -153.5 30.5t-117 92t-74.5 154t-26 217.5q0 118 29 209t82.5 152.5t129.5 93t171 31.5q25 0 51.5 -3t59.5 -9v436h240v-438q46 8 77 11t57 3q101 0 174.5 -32t121 -92t70.5 -146.5t23 -195.5q0 -117 -28 -211.5t-80 -162
t-126 -104t-166 -36.5q-32 0 -63 6t-60 15v-361h-240v362zM817 179q23 -6 45.5 -8t51.5 -2q47 0 82 18t58.5 56t35 98.5t11.5 145.5q0 52 -8.5 101t-31 87t-60.5 61t-98 23q-23 0 -42 -4.5t-44 -11.5v-564zM598 745q-30 7 -48 10.5t-42 3.5q-47 0 -83 -16t-61 -50.5
t-37.5 -90.5t-12.5 -135q0 -139 47 -218.5t141 -79.5q23 0 46.5 4t49.5 11v561z" />
    <glyph glyph-name="afii10087" unicode="&#x445;" 
d="M333 479l-289 457h302l104 -181l75 -135l76 135l111 181h274l-291 -449l305 -487h-295l-124 209l-76 134l-80 -132l-126 -211h-275z" />
    <glyph glyph-name="afii10088" unicode="&#x446;" horiz-adv-x="1180" 
d="M1155 -213h-177l-30 213h-798v936h249v-715h357v715h250v-715h149v-434z" />
    <glyph glyph-name="afii10089" unicode="&#x447;" horiz-adv-x="1155" 
d="M385 936v-216q0 -66 10 -108t31.5 -66t56 -33.5t82.5 -9.5q29 0 56.5 4.5t51.5 11.5t44 15t35 16v386h248v-936h-248v377q-12 -8 -37.5 -22t-63 -27.5t-86.5 -23.5t-108 -10q-74 0 -133.5 18.5t-101.5 60t-64.5 108.5t-22.5 163v292h250z" />
    <glyph glyph-name="afii10090" unicode="&#x448;" horiz-adv-x="1729" 
d="M162 0v936h249v-715h330v715h248v-715h330v715h249v-936h-1406z" />
    <glyph glyph-name="afii10091" unicode="&#x449;" horiz-adv-x="1729" 
d="M1704 -213h-174l-34 213h-1346v936h250v-715h330v715h250v-715h330v715h250v-715h144v-434z" />
    <glyph glyph-name="afii10092" unicode="&#x44a;" horiz-adv-x="1194" 
d="M521 610q51 11 100 17t95 6q87 0 160.5 -16.5t123.5 -49.5q30 -20 53.5 -47t40.5 -58t26 -65.5t9 -69.5q0 -84 -27 -147.5t-85 -106t-149 -64t-220 -21.5q-112 0 -208.5 3t-168.5 7v716h-231v222h481v-326zM521 209q17 -4 37.5 -6.5t41 -4t39.5 -2t33 -0.5
q100 0 148 32.5t48 97.5q0 61 -50 94.5t-142 33.5q-51 0 -88 -7t-67 -15v-223z" />
    <glyph glyph-name="afii10093" unicode="&#x44b;" horiz-adv-x="1599" 
d="M1187 936h249v-936h-249v936zM413 209q17 -4 38 -6.5t42.5 -4t41 -2t33.5 -0.5q100 0 144 32.5t44 97.5q0 61 -46 94.5t-138 33.5q-51 0 -90 -7t-69 -15v-223zM413 610q51 11 104 17t99 6q175 0 274 -66q60 -40 93.5 -105t33.5 -135q0 -84 -25.5 -147.5t-82 -106
t-146.5 -64t-219 -21.5q-112 0 -210.5 3t-170.5 7v938h250v-326z" />
    <glyph glyph-name="afii10094" unicode="&#x44c;" horiz-adv-x="1083" 
d="M410 209q17 -4 37.5 -6.5t41 -4t39.5 -2t33 -0.5q100 0 148 32.5t48 97.5q0 61 -50 94.5t-142 33.5q-51 0 -88 -7t-67 -15v-223zM410 610q51 12 102 17.5t97 5.5q87 0 158.5 -16.5t121.5 -49.5q30 -20 53.5 -47t40.5 -58t26 -65.5t9 -69.5q0 -84 -27 -147.5t-85 -106
t-149 -64t-220 -21.5q-112 0 -208.5 3t-168.5 7v938h250v-326z" />
    <glyph glyph-name="afii10095" unicode="&#x44d;" horiz-adv-x="885" 
d="M221 561h354q-6 40 -23.5 75t-47.5 61t-73.5 41t-102.5 15q-38 0 -67 -5t-53 -13t-45.5 -18t-45.5 -21l-66 179q27 16 58.5 31.5t70 28t85 20t103.5 7.5q108 0 190 -32t138 -87q60 -60 94.5 -158t34.5 -218q0 -109 -29.5 -199.5t-88 -156t-147 -102t-206.5 -36.5
q-177 0 -309 71l60 192q48 -23 100.5 -38.5t116.5 -15.5q70 0 115.5 16.5t74 45t42.5 66t22 78.5h-355v173z" />
    <glyph glyph-name="afii10096" unicode="&#x44e;" horiz-adv-x="1565" 
d="M399 586h186q12 83 46.5 152.5t91.5 119t135.5 77t176.5 27.5q116 0 202.5 -37.5t143.5 -104t85.5 -157t28.5 -196.5t-28.5 -196.5t-85.5 -157t-143.5 -104t-202.5 -37.5q-198 0 -315 103.5t-139 301.5h-182v-377h-249v936h249v-350zM830 467q0 -75 14.5 -129.5t41.5 -89
t64.5 -51t84.5 -16.5q55 0 93.5 21.5t63.5 59.5t36.5 90.5t11.5 114.5t-11.5 114.5t-36.5 90.5t-63.5 59.5t-93.5 21.5q-47 0 -84.5 -16.5t-64.5 -51t-41.5 -89t-14.5 -129.5z" />
    <glyph glyph-name="afii10097" unicode="&#x44f;" horiz-adv-x="1108" 
d="M709 319l-164 -23l-221 -296h-304l218 287l70 62q-44 13 -81 36.5t-64.5 56.5t-43 75.5t-15.5 93.5q0 71 20.5 125t56 93t84 64.5t105 41t118.5 21.5t124 6q45 0 93 -2.5t93.5 -6.5t86.5 -9t73 -10v-934h-249v319zM709 476v264q-42 8 -78 10.5t-64 2.5q-97 0 -150 -38
t-53 -106q0 -71 57 -104t174 -33z" />
    <glyph glyph-name="afii10071" unicode="&#x451;" horiz-adv-x="909" 
d="M824 60q-53 -40 -135 -63.5t-185 -23.5q-102 0 -180.5 25.5t-134.5 79.5q-66 65 -97.5 166t-31.5 218q0 121 35.5 216t90.5 158q56 64 135.5 95t173.5 31q88 0 155 -26.5t112.5 -75.5t68.5 -120t23 -159q0 -44 -4.5 -93t-12.5 -86h-523q0 -49 10.5 -93.5t36.5 -77.5
q26 -34 70 -48t98 -14q67 0 120.5 21t90.5 47zM481 766q-48 0 -79.5 -18t-50.5 -47.5t-27.5 -68t-9.5 -78.5h307q3 30 3 55q-2 71 -38.5 114t-104.5 43zM133 1273q0 67 41.5 107.5t107.5 40.5t106 -40.5t40 -107.5q0 -59 -40 -99.5t-106 -40.5t-107.5 40.5t-41.5 99.5z
M563 1273q0 67 39.5 107.5t105.5 40.5q68 0 108 -40.5t40 -107.5q0 -59 -40 -99.5t-108 -40.5q-66 0 -105.5 40.5t-39.5 99.5z" />
    <glyph glyph-name="afii10099" unicode="&#x452;" horiz-adv-x="1100" 
d="M10 1090h142v287h249v-287h317v-148h-317v-276h22q20 25 46 50t60 45t77.5 32.5t98.5 12.5q61 0 114 -19t92 -65.5t61 -124t22 -194.5v-447q0 -168 -72 -256t-216 -88q-56 0 -128 12v209q52 -5 84.5 3.5t51 29t25 51t6.5 70.5v366q0 40 -6 81t-22.5 74.5t-46 54.5
t-76.5 21q-39 0 -70.5 -16.5t-55.5 -41.5t-41 -55t-26 -58v-413h-249v942h-142v148z" />
    <glyph glyph-name="afii10100" unicode="&#x453;" horiz-adv-x="930" 
d="M845 714h-446v-714h-264v936h710v-222zM503 1412h274v-56l-244 -251h-147z" />
    <glyph glyph-name="afii10101" unicode="&#x454;" horiz-adv-x="885" 
d="M830 52q-30 -20 -66.5 -34.5t-76.5 -24.5t-82 -15t-84 -5q-106 0 -191.5 36t-145.5 101t-92 156t-32 201q0 118 35 210t97 155.5t145.5 96.5t181.5 33q45 0 88 -5t81.5 -13t70 -19t53.5 -23l-58 -204q-47 20 -98.5 32t-108.5 12q-100 0 -156 -49t-67 -137h362v-164h-362
q18 -102 77.5 -150t159.5 -48q66 0 119 16.5t88 38.5z" />
    <glyph glyph-name="afii10102" unicode="&#x455;" horiz-adv-x="797" 
d="M123 252q32 -21 62.5 -36.5t62 -26t65.5 -15.5t73 -5q63 0 87.5 23.5t24.5 58.5q0 33 -18 54t-45.5 35t-61 23.5t-64.5 19.5q-38 12 -79.5 33.5t-76 55.5t-56.5 83.5t-22 117.5q0 70 25 124t71 91t111.5 55.5t145.5 18.5q40 0 75.5 -3.5t69 -11t68 -19.5t72.5 -28
l-52 -189q-54 21 -110 38t-119 17q-50 0 -78 -21t-28 -63q0 -34 19 -54t48 -32.5t64 -21t67 -18.5q43 -14 83 -35t71 -53t50 -77t19 -107q0 -68 -21 -125t-65.5 -98t-114 -64.5t-166.5 -23.5q-106 0 -191 24t-139 54z" />
    <glyph glyph-name="afii10103" unicode="&#x456;" horiz-adv-x="569" 
d="M159 936h250v-936h-250v936zM127 1275q0 31 13.5 57t36.5 44.5t54 29t67 10.5q41 0 74 -10.5t56.5 -29t36.5 -44.5t13 -57q0 -69 -49 -105.5t-131 -36.5q-36 0 -67 9.5t-54 27.5t-36.5 44.5t-13.5 60.5z" />
    <glyph glyph-name="afii10104" unicode="&#x457;" horiz-adv-x="569" 
d="M160 936h250v-936h-250v936zM-76 1273q0 67 41.5 107.5t107.5 40.5t106 -40.5t40 -107.5q0 -59 -40 -99.5t-106 -40.5t-107.5 40.5t-41.5 99.5zM354 1273q0 67 39.5 107.5t105.5 40.5q68 0 108 -40.5t40 -107.5q0 -59 -40 -99.5t-108 -40.5q-66 0 -105.5 40.5t-39.5 99.5
z" />
    <glyph glyph-name="afii10105" unicode="&#x458;" horiz-adv-x="682" 
d="M236 936h249v-942q0 -40 -4.5 -79t-13 -75t-21.5 -66.5t-30 -53.5q-20 -26 -47.5 -46.5t-61 -34t-70.5 -20.5t-74 -7q-29 0 -64 4t-61 12v208q8 -1 22 -1.5t22 -0.5q42 0 75 12t50 35q20 27 24.5 64t4.5 91v900zM204 1275q0 31 13.5 57t36.5 44.5t54 29t67 10.5
q41 0 74 -10.5t56.5 -29t36.5 -44.5t13 -57q0 -69 -49 -105.5t-131 -36.5q-36 0 -67 9.5t-54 27.5t-36.5 44.5t-13.5 60.5z" />
    <glyph glyph-name="afii10106" unicode="&#x459;" horiz-adv-x="1597" 
d="M961 606q54 12 104.5 17t87.5 5q104 0 176.5 -25.5t117.5 -67.5t65 -97.5t20 -115.5q0 -84 -24.5 -147t-79.5 -104.5t-145 -62t-220 -20.5q-113 0 -196.5 2.5t-154.5 7.5v716h-219q-5 -149 -19 -281t-48 -230.5t-93 -155.5t-154 -57q-113 0 -159 24l35 221q31 -9 56 -9
q39 0 70 30.5t49 109.5q9 39 16 92.5t12.5 123.5t10 158t7.5 196h685v-330zM961 209q34 -8 66.5 -10.5t60.5 -2.5q100 0 144 29.5t44 94.5q0 59 -42.5 94t-138.5 35q-37 0 -70 -4.5t-64 -12.5v-223z" />
    <glyph glyph-name="afii10107" unicode="&#x45a;" horiz-adv-x="1632" 
d="M997 209q33 -8 65.5 -10.5t61.5 -2.5q103 0 146 30.5t43 96.5q0 57 -44 91.5t-138 34.5q-71 0 -134 -17v-223zM997 606q55 14 110.5 18t91.5 4q96 0 165.5 -24.5t115 -65.5t67.5 -96.5t22 -116.5q0 -85 -24.5 -148t-79.5 -105t-145 -63t-220 -21q-114 0 -198 3t-154 9
v367h-349v-367h-249v936h249v-344h349v344h249v-330z" />
    <glyph glyph-name="afii10108" unicode="&#x45b;" horiz-adv-x="1139" 
d="M10 1090h158v287h249v-287h300v-148h-300v-278h24q23 33 50 59t60.5 44.5t74.5 28.5t92 10q73 0 127.5 -19t91 -65t54.5 -123.5t18 -193.5v-405h-249v351q0 49 -3.5 92t-18.5 74t-45.5 49t-84.5 18q-38 0 -69 -13.5t-55 -37t-41 -54.5t-26 -66v-413h-249v942h-158v148z
" />
    <glyph glyph-name="afii10109" unicode="&#x45c;" horiz-adv-x="1180" 
d="M518 388h-108v-388h-250v936h250v-405l99 34l313 371h288l-325 -360l-70 -75l78 -80l357 -421h-302zM580 1412h274v-56l-244 -251h-147z" />
    <glyph glyph-name="afii10110" unicode="&#x45e;" 
d="M515 451l41 -130h5l31 130l156 485h256l-304 -848q-18 -50 -37 -99t-39 -93.5t-40 -82t-39 -65.5q-52 -75 -118 -105.5t-141 -30.5q-46 0 -103 16.5t-105 51.5l59 180q18 -10 36.5 -16.5t35 -10t30 -5t20.5 -1.5q28 0 61.5 10.5t58.5 37.5q20 21 38.5 60t29.5 77
l-422 924h301zM390 1437q7 -41 20 -67.5t31 -43t41.5 -23t52.5 -6.5q61 0 95 30.5t50 107.5l202 -53q-14 -65 -47.5 -113t-81 -79.5t-106 -47t-121.5 -15.5q-65 0 -125 14t-109 44.5t-83.5 79t-48.5 117.5z" />
    <glyph glyph-name="afii10193" unicode="&#x45f;" horiz-adv-x="1180" 
d="M400 936v-720h380v720h250v-936h-321l-30 -310h-169l-39 310h-321v936h250z" />
    <glyph glyph-name="afii10146" unicode="&#x462;" horiz-adv-x="1564" 
d="M35 1262h310v144h287v-144h462v-240h-462v-162q10 2 39 5.5t64.5 6.5t71.5 5.5t60 2.5q45 0 102 -3.5t115 -14t112.5 -28t94.5 -44.5q39 -26 72 -60.5t58 -78t39 -95t14 -111.5q0 -135 -52.5 -224t-140.5 -142.5t-202.5 -75.5t-238.5 -22q-19 0 -53.5 1t-78.5 2.5
t-93.5 4t-98.5 6t-93.5 8t-77.5 10.5v1009h-310v240zM865 233q58 0 113 9t98 32t68.5 62.5t25.5 100.5q0 63 -27 101t-70 59t-98 28t-110 7q-15 0 -48.5 -1t-70.5 -3.5t-69 -5.5t-45 -6v-374q12 -2 41.5 -3.5t65 -3t70.5 -2t56 -0.5z" />
    <glyph glyph-name="afii10194" unicode="&#x463;" horiz-adv-x="1229" 
d="M20 936h241v441h250v-441h348v-173h-348v-150q51 12 107 16t102 4q87 0 163.5 -16.5t126.5 -49.5q30 -20 53.5 -47t40.5 -58t26 -65.5t9 -69.5q0 -84 -28.5 -147.5t-88.5 -106t-152.5 -64t-221.5 -21.5q-112 0 -213.5 3t-173.5 7v765h-241v173zM511 209q17 -4 39 -6.5
t44.5 -4t43 -2t34.5 -0.5q100 0 153 32.5t53 97.5q0 61 -55 94.5t-147 33.5q-51 0 -93 -5.5t-72 -13.5v-226z" />
    <glyph glyph-name="afii10147" unicode="&#x472;" horiz-adv-x="1593" 
d="M115 676q0 168 49 299.5t138.5 221.5t214.5 137.5t278 47.5q162 0 288.5 -51t214.5 -144t134 -222.5t46 -286.5q0 -158 -46 -288t-134 -223t-214.5 -144t-288.5 -51q-153 0 -278 47.5t-214.5 137.5t-138.5 221t-49 298zM795 223q82 0 146 25.5t110 71t74 109t40 138.5
h-740q12 -89 43.5 -153.5t79.5 -107t110.5 -63t136.5 -20.5zM795 1131q-74 0 -136 -20.5t-109.5 -62t-79 -105t-44.5 -149.5h738q-12 74 -40.5 136t-74.5 106.5t-109 69.5t-145 25z" />
    <glyph glyph-name="afii10195" unicode="&#x473;" 
d="M60 467q0 118 32 210.5t91 155.5t142.5 96t186.5 33q109 0 193 -36.5t141.5 -101.5t87.5 -156.5t30 -200.5q0 -116 -33 -207.5t-92.5 -155.5t-142.5 -97.5t-184 -33.5q-109 0 -193.5 36.5t-142 102t-87 156.5t-29.5 199zM709 542q-16 106 -63.5 158.5t-133.5 52.5
q-46 0 -80 -16t-58 -44.5t-38 -67t-19 -83.5h392zM317 391q12 -99 64 -154t131 -55q48 0 82 15.5t57 43.5t37 66.5t21 83.5h-392z" />
    <glyph glyph-name="afii10148" unicode="&#x474;" horiz-adv-x="1670" 
d="M860 -9h-205l-593 1365h335l316 -783l60 -171h5l57 173l163 420q17 44 36 86.5t42 82t51 74t62 61.5q45 36 102.5 55t126.5 19q60 0 109.5 -10.5t102.5 -33.5l-63 -241q-25 14 -56 23.5t-61 9.5q-27 0 -51 -6t-46.5 -23.5t-44.5 -50t-44 -85.5z" />
    <glyph glyph-name="afii10196" unicode="&#x475;" horiz-adv-x="1239" 
d="M661 -8h-148l-463 944h289l214 -471l48 -114h5l40 118l39 106q37 99 66.5 164t66.5 110q45 56 97 79t121 23q24 0 49.5 -3t49.5 -7.5t43 -9t29 -8.5q-9 -52 -22 -99t-22 -98q-16 6 -35.5 10t-37.5 4t-36 -6t-35.5 -20.5t-35 -38.5t-34.5 -61z" />
    <glyph glyph-name="uni048A" unicode="&#x48a;" horiz-adv-x="1593" 
d="M1061 748l23 162h-7l-109 -165l-556 -745h-212v1356h286v-730l-19 -171h10l107 171l549 730h216v-1116h229v-62l-199 -430h-200l95 252h-213v748zM651 1748q11 -60 51.5 -85.5t105.5 -25.5q140 0 157 109l235 -33q-24 -126 -122.5 -181.5t-271.5 -55.5q-85 0 -156.5 11
t-125.5 38t-88 70.5t-44 111.5z" />
    <glyph glyph-name="uni048B" unicode="&#x48b;" horiz-adv-x="1180" 
d="M751 412l9 128l-101 -126l-360 -414h-149v936h249v-431l-4 -128l104 128l351 431h150v-715h160v-57l-183 -377h-184l87 213h-129v412zM459 1357q7 -41 20 -67.5t31 -43t41.5 -23t52.5 -6.5q61 0 95 30.5t50 107.5l202 -53q-14 -65 -47.5 -113t-81 -79.5t-106 -47
t-121.5 -15.5q-65 0 -125 14t-109 44.5t-83.5 79t-48.5 117.5z" />
    <glyph glyph-name="uni048C" unicode="&#x48c;" horiz-adv-x="1354" 
d="M25 1262h210v144h287v-144h462v-240h-462v-162q20 5 66 11t102 7q45 1 98.5 -2.5t107.5 -13.5t104.5 -27.5t90.5 -44.5q39 -26 72 -60.5t58 -78t39 -95t14 -111.5q0 -135 -52.5 -224t-140.5 -142.5t-202.5 -75.5t-238.5 -22q-28 0 -76 2t-104.5 5.5t-115.5 9.5t-109 15
v1009h-210v240zM665 233q58 0 113 9t98 32t68.5 62.5t25.5 100.5q0 63 -27 101.5t-70 59.5t-98 28.5t-110 7.5q-15 0 -34.5 -1t-39.5 -2.5t-38 -4.5t-31 -6v-378q23 -4 61.5 -6.5t81.5 -2.5z" />
    <glyph glyph-name="uni048D" unicode="&#x48d;" horiz-adv-x="1083" 
d="M15 957h155v420h250v-420h338v-173h-338v-171q54 11 98.5 15.5t90.5 4.5q87 0 158.5 -17t121.5 -50q60 -40 94.5 -104.5t34.5 -134.5q0 -80 -27 -143t-85 -106.5t-149 -66.5t-220 -23q-112 0 -203.5 3.5t-163.5 6.5v786h-155v173zM420 209q34 -8 73.5 -10.5t67.5 -2.5
q100 0 148 32.5t48 97.5q0 61 -50 94.5t-142 33.5q-50 0 -82.5 -6t-62.5 -13v-226z" />
    <glyph glyph-name="cyrErcrossed" unicode="&#x48e;" horiz-adv-x="1251" 
d="M184 1342q86 13 181 23t186 10q52 0 106.5 -2.5t109 -11t106.5 -24t98 -40.5q48 -26 85.5 -65.5t63.5 -88.5t39.5 -105t13.5 -116q0 -70 -15 -126t-41.5 -100.5t-62 -80t-76.5 -63.5l147 -201l-164 -111l-163 233q-45 -10 -89 -15t-92 -5q-10 0 -30 0.5t-42 1.5
t-42.5 2.5t-31.5 3.5v-461h-287v1342zM471 707q8 -2 22 -4t30 -3.5t30.5 -2.5t23.5 -1q27 0 55.5 1.5t54.5 8.5l-114 166l107 67l125 -185q29 23 46.5 61t17.5 105q0 61 -23 100t-61 62t-88.5 32t-105.5 9q-42 0 -69.5 -3t-50.5 -6v-407z" />
    <glyph glyph-name="cyrercrossed" unicode="&#x48f;" horiz-adv-x="1139" 
d="M150 936h178l31 -116h21q55 71 124 106.5t168 35.5q94 0 164.5 -27.5t118 -85.5t71 -147.5t23.5 -212.5q0 -253 -133 -389l90 -104l-170 -148l-112 142q-63 -19 -139 -19q-45 0 -93 11.5t-93 31.5v-381h-249v1303zM399 233q24 -20 61 -36.5t94 -16.5q14 0 26.5 0.5
t24.5 3.5l-89 107l111 97l106 -129q59 77 59 238q0 60 -10.5 107.5t-34.5 80.5t-61.5 50.5t-91.5 17.5q-42 0 -74.5 -12.5t-56 -34t-39.5 -50t-25 -59.5v-364z" />
    <glyph glyph-name="afii10050" unicode="&#x490;" horiz-adv-x="1065" 
d="M1025 1104h-549v-1104h-286v1356h609l43 298h183v-550z" />
    <glyph glyph-name="afii10098" unicode="&#x491;" horiz-adv-x="797" 
d="M777 714h-364v-714h-263v936h419l39 274h169v-496z" />
    <glyph glyph-name="cyrGebar" unicode="&#x492;" horiz-adv-x="1303" 
d="M1223 1104h-706v-350h539v-192h-539v-562h-296v562h-193v192h193v602h1002v-252z" />
    <glyph glyph-name="cyrgebar" unicode="&#x493;" horiz-adv-x="930" 
d="M868 714h-452v-197h394v-173h-394v-350h-263v350h-121v173h121v419h715v-222z" />
    <glyph glyph-name="cyrGehook" unicode="&#x494;" horiz-adv-x="1478" 
d="M496 0h-286v1356h985v-252h-699v-374q54 16 139.5 29.5t190.5 13.5q47 0 98.5 -5t102.5 -17t99 -31t87 -47t72 -66t57 -86.5t37.5 -109.5t13.5 -136q0 -100 -25 -182t-73 -146q-72 -94 -189.5 -143.5t-266.5 -49.5q-58 0 -99 2t-56 6v247q19 -1 34 -1.5t29.5 -1
t29.5 -0.5h33q64 0 116 13.5t88 43.5t55.5 78.5t19.5 118.5t-27.5 119t-71.5 80q-49 35 -110 48.5t-119 13.5q-28 0 -64 -2.5t-73 -8t-71 -12.5t-57 -16v-482z" />
    <glyph glyph-name="cyrgehook" unicode="&#x495;" horiz-adv-x="1181" 
d="M399 0h-249v936h735v-222h-486v-236q11 6 34 13.5t51.5 14t61 11.5t62.5 5q45 0 91 -6t90.5 -19t85.5 -34.5t76 -51.5q66 -57 107 -139t41 -186q0 -114 -34 -202.5t-97 -148.5t-151.5 -91.5t-196.5 -31.5q-37 0 -66 3.5t-45 5.5v217q18 -3 50.5 -4t59.5 -1
q108 0 166 62.5t58 174.5q0 56 -17.5 99.5t-50 73.5t-78 45.5t-101.5 15.5q-44 0 -98.5 -9t-98.5 -28v-267z" />
    <glyph glyph-name="cyrZhedesc" unicode="&#x496;" horiz-adv-x="2025" 
d="M866 1356h272v-599l95 27l382 572h325l-419 -595l-52 -68l73 -83l282 -358h179v-492h-205l-30 240h-118l-413 582h-99v-582h-272v606l-89 -27l-420 -579h-337l460 591l65 78l-61 72l-435 615h335l380 -576h102v576z" />
    <glyph glyph-name="cyrzhedesc" unicode="&#x497;" horiz-adv-x="1485" 
d="M525 381l-231 -381h-284l285 424l39 61l-64 76l-246 375h273l221 -380h99v380h234v-405l93 32l218 373h269l-245 -375l-49 -66l69 -78l123 -196h140v-434h-184l-29 213h-83l-218 388h-104v-388h-234v411z" />
    <glyph glyph-name="cyrZetail" unicode="&#x498;" horiz-adv-x="1081" 
d="M251 595v218h30q40 0 78 0.5t74 4t70 12t66 24.5q39 20 61.5 51t22.5 73q0 44 -18 73.5t-45 44.5q-31 17 -68 24t-90 7q-46 0 -89.5 -7t-82 -18t-69.5 -24t-52 -25l-72 244q21 10 61.5 24t94.5 27t118 22t132 9q93 0 180 -15.5t154.5 -54.5t108.5 -105t41 -166
q0 -114 -65 -191.5t-179 -116.5v-11q137 -22 212.5 -106.5t75.5 -224.5q0 -109 -48 -187t-127 -129q-49 -32 -107 -53t-121 -32l-28 -324h-184l-40 314q-105 8 -182.5 30t-125.5 45l74 248q44 -19 83.5 -33t79 -23.5t80 -14t87.5 -4.5q45 0 90.5 9.5t82 31t60 57t23.5 87.5
q0 31 -8.5 57t-28.5 47.5t-52.5 37t-80.5 25.5q-65 13 -124.5 15.5t-122.5 2.5h-30z" />
    <glyph glyph-name="cyrzetail" unicode="&#x499;" horiz-adv-x="823" 
d="M234 388v168h76q81 0 127 25.5t46 70.5q0 26 -13 43.5t-35 28.5t-51 15.5t-61 4.5q-65 0 -119 -17.5t-94 -36.5l-49 185q74 42 157.5 60t172.5 18q174 0 258.5 -64.5t84.5 -177.5q0 -31 -11 -61.5t-32 -58t-51 -50t-67 -37.5v-15q100 -22 150 -77.5t50 -151.5
q0 -48 -16.5 -91.5t-51 -79.5t-88 -62t-126.5 -39l-27 -298h-168l-38 292q-71 10 -124.5 29t-95.5 41q12 48 26 96t30 97q48 -26 108 -43t141 -17q180 0 180 109q0 24 -11 41.5t-38 29.5t-73 17.5t-115 5.5h-52z" />
    <glyph glyph-name="cyrKadesc" unicode="&#x49a;" horiz-adv-x="1485" 
d="M627 573h-131v-573h-286v1356h286v-597l114 30l456 567h359l-489 -571l-80 -74l85 -78l318 -381h210v-492h-205l-29 240h-148z" />
    <glyph glyph-name="cyrkadesc" unicode="&#x49b;" horiz-adv-x="1180" 
d="M518 388h-108v-388h-250v936h250v-405l99 34l313 371h288l-325 -360l-70 -75l78 -77l179 -203h168v-434h-184l-27 213h-77z" />
    <glyph glyph-name="cyrKavertbar" unicode="&#x49c;" horiz-adv-x="1485" 
d="M586 575h-110v-575h-286v1356h286v-599l111 6l-1 263h184v-246l35 4l320 572h305l-345 -571l-48 -72l54 -78l378 -635h-320l-337 575h-42v-246h-184v246z" />
    <glyph glyph-name="cyrkavertbar" unicode="&#x49d;" horiz-adv-x="1180" 
d="M496 388h-96v-388h-250v936h250v-401l96 7v228h141v-212l37 5l221 373h257l-238 -371l-42 -70l50 -87l238 -408h-269l-212 388h-42v-222h-141v222z" />
    <glyph glyph-name="cyrKabar" unicode="&#x49e;" horiz-adv-x="1485" 
d="M647 573h-135v-573h-287v1055h-210v194h210v107h287v-107h192v-170h-192v-320l118 30l440 567h355l-473 -571l-80 -74l85 -78l512 -633h-378z" />
    <glyph glyph-name="cyrkabar" unicode="&#x49f;" horiz-adv-x="1180" 
d="M518 388h-108v-388h-248v1032h-152v148h152v197h248v-197h287v-148h-287v-501l99 34l313 371h288l-325 -360l-70 -75l78 -80l357 -421h-302z" />
    <glyph glyph-name="cyrKaback" unicode="&#x4a0;" horiz-adv-x="1697" 
d="M820 573h-129v-573h-286v1104h-335v252h621v-597l112 30l475 567h352l-499 -571l-80 -74l85 -78l541 -633h-372z" />
    <glyph glyph-name="cyrkaback" unicode="&#x4a1;" horiz-adv-x="1291" 
d="M629 388h-108v-388h-247v714h-238v222h485v-405l99 34l313 371h288l-325 -360l-70 -75l78 -80l357 -421h-302z" />
    <glyph glyph-name="cyrEndesc" unicode="&#x4a2;" horiz-adv-x="1593" 
d="M1085 560h-588v-560h-287v1356h287v-545h588v545h286v-1104h182v-492h-203l-32 240h-233v560z" />
    <glyph glyph-name="cyrendesc" unicode="&#x4a3;" horiz-adv-x="1180" 
d="M775 362h-376v-362h-249v936h249v-348h376v348h248v-715h127v-434h-183l-28 213h-164v362z" />
    <glyph glyph-name="cyrEnGe" unicode="&#x4a4;" horiz-adv-x="1887" 
d="M1817 1104h-531v-1104h-287v560h-522v-560h-287v1356h287v-545h522v545h818v-252z" />
    <glyph glyph-name="cyrenge" unicode="&#x4a5;" horiz-adv-x="1366" 
d="M715 362h-315v-362h-250v936h250v-348h315v348h605v-222h-357v-714h-248v362z" />
    <glyph glyph-name="cyrPehook" unicode="&#x4a6;" horiz-adv-x="2283" 
d="M1342 0h-287v1104h-559v-1104h-286v1356h1132v-626q16 5 45 12.5t67 14t84 11.5t97 5q64 0 132 -10t132.5 -33.5t122.5 -61.5t101.5 -94.5t69 -133t25.5 -175.5q0 -125 -30.5 -215t-92.5 -159t-163 -103t-233 -34q-60 0 -106.5 2t-62.5 6v247q7 0 23 -0.5t35.5 -1
t39.5 -1t37 -0.5q52 0 97.5 15t79 46.5t53 80.5t19.5 116q0 76 -33 125.5t-85 79t-114.5 41t-122.5 11.5q-23 0 -51 -2.5t-57 -7t-57 -11.5t-52 -16v-484z" />
    <glyph glyph-name="cyrpehook" unicode="&#x4a7;" horiz-adv-x="1728" 
d="M1012 0h-250v714h-363v-714h-249v936h862v-454q14 6 37.5 13t52 13t61 10t65.5 4q95 0 175 -32.5t138.5 -91t91.5 -140t33 -180.5q0 -97 -25 -182t-79 -148t-139.5 -99.5t-205.5 -36.5q-37 0 -70 3t-49 5v217q12 -2 34 -3t54 -1q100 0 158 60.5t58 175.5q0 51 -16.5 94
t-47 73.5t-74 47.5t-98.5 17q-45 0 -86 -11.5t-68 -23.5v-266z" />
    <glyph glyph-name="cyrOhook" unicode="&#x4a8;" horiz-adv-x="1494" 
d="M542 1131q-63 -18 -101.5 -55t-59.5 -92t-28 -127.5t-7 -159.5q0 -108 19.5 -198.5t58 -156t94.5 -101.5t130 -36q10 0 24.5 0.5t29 2t28 4t22.5 6.5q-34 25 -68.5 75.5t-62.5 117t-45.5 146.5t-17.5 164q0 145 30 256.5t84.5 187t131 114t170.5 38.5q107 0 183 -42.5
t124.5 -116t71 -173.5t22.5 -214q0 -107 -21.5 -194.5t-54 -155t-71 -114.5t-72.5 -72q6 -3 16 -5t21.5 -3.5t22.5 -2.5t17 -1q63 0 109.5 20t77.5 43l81 -222q-14 -12 -39 -28t-61 -30t-82.5 -23.5t-103.5 -9.5q-82 0 -151 23.5t-119 67.5q-27 -18 -55.5 -34.5t-63.5 -29
t-80 -20t-103 -7.5q-102 0 -184.5 26t-147 73t-111 112.5t-76.5 143.5t-44.5 166.5t-14.5 181.5q0 166 33.5 293t95.5 215.5t150 137.5t198 60v-251zM826 712q0 -62 11.5 -121t30.5 -110.5t44 -92t52 -65.5q27 25 52.5 69t46 99t32.5 116.5t12 121.5q0 62 -4 122t-18 107.5
t-40.5 77t-70.5 29.5q-43 0 -71.5 -23t-45.5 -68t-24 -111t-7 -151z" />
    <glyph glyph-name="cyrohook" unicode="&#x4a9;" horiz-adv-x="1093" 
d="M410 753q-71 -16 -99 -85.5t-28 -197.5q0 -61 13 -118.5t39.5 -102t65.5 -71.5t90 -27q18 0 33.5 1.5t38.5 10.5q-37 33 -62.5 77t-41.5 92t-23 97t-7 91q0 69 16 143t52 134.5t93.5 99.5t140.5 39q80 0 136 -32t91 -85t51 -123t16 -146q0 -61 -13 -118t-34 -105
t-48.5 -85t-56.5 -58q18 -8 38 -13t39 -5q36 0 61 8.5t38 18.5l46 -165q-5 -4 -18 -13t-34.5 -18.5t-51.5 -16.5t-68 -7q-40 0 -72 6.5t-57.5 17t-46 24.5t-37.5 28q-39 -32 -95.5 -54t-146.5 -22q-78 0 -139.5 22.5t-107.5 60.5t-79 88.5t-53 105.5t-29.5 112t-9.5 108
q0 106 23 194.5t68.5 152.5t113 101.5t155.5 43.5v-209zM637 517q0 -40 6 -80t18 -75t28.5 -63.5t37.5 -46.5q15 13 31 39t29 61.5t21.5 79t8.5 91.5q0 32 -2 71.5t-10.5 73.5t-26.5 57t-50 23q-34 0 -52.5 -23.5t-27 -58.5t-10 -75.5t-1.5 -73.5z" />
    <glyph glyph-name="cyrEstail" unicode="&#x4aa;" horiz-adv-x="1479" 
d="M1387 103q-50 -29 -102 -50.5t-103.5 -36.5t-101 -25t-94.5 -14l-29 -314h-184l-40 320q-49 6 -97.5 16t-95.5 27t-90.5 41.5t-81.5 58.5q-51 44 -93 100t-72 124.5t-46.5 150.5t-16.5 179q0 153 51.5 281t155.5 231q50 49 111 85t130 59t144.5 34.5t154.5 11.5
q127 0 245 -26.5t235 -83.5l-83 -244q-95 51 -190.5 77t-195.5 26q-91 0 -176 -23t-150 -86q-58 -57 -93 -145t-35 -197q0 -114 36.5 -207t102.5 -148q38 -32 76.5 -51.5t80.5 -30t89.5 -14.5t102.5 -4q48 0 97 8.5t97.5 23.5t94 35.5t85.5 44.5z" />
    <glyph glyph-name="cyrestail" unicode="&#x4ab;" horiz-adv-x="909" 
d="M859 63q-45 -31 -103 -52t-124 -31l-27 -290h-169l-38 299q-81 19 -139.5 61.5t-96 104.5t-55 141t-17.5 171q0 117 35 207.5t93 156.5t146 98.5t198 32.5q100 0 172 -21t125 -47l-60 -200q-48 19 -97.5 33.5t-110.5 14.5q-55 0 -99.5 -15t-76.5 -47q-33 -34 -51 -87
t-18 -126q0 -58 13 -108t41.5 -86.5t73 -57.5t107.5 -21q70 0 126.5 18.5t95.5 38.5z" />
    <glyph glyph-name="cyrTedesc" unicode="&#x4ac;" horiz-adv-x="1366" 
d="M539 1104h-469v252h1226v-252h-470v-852h184v-492h-203l-31 240h-237v1104z" />
    <glyph glyph-name="cyrtedesc" unicode="&#x4ad;" horiz-adv-x="1006" 
d="M373 714h-328v222h916v-222h-328v-493h135v-434h-183l-29 213h-183v714z" />
    <glyph glyph-name="cyrstraightU" unicode="&#x4ae;" horiz-adv-x="1479" 
d="M596 499l-564 857h354l304 -490l62 -115h7l62 118l303 487h323l-564 -855v-501h-287v499z" />
    <glyph glyph-name="cyrstraightu" unicode="&#x4af;" 
d="M20 936h289l176 -539l43 -140h8l38 144l160 535h270l-354 -942v-361h-250v361z" />
    <glyph glyph-name="cyrstraightUbar" unicode="&#x4b0;" horiz-adv-x="1479" 
d="M596 386h-310v187h265l-519 783h354l304 -490l62 -115h7l62 118l303 487h323l-521 -783h267v-187h-310v-386h-287v386z" />
    <glyph glyph-name="cyrstraightubar" unicode="&#x4b1;" 
d="M20 936h289l176 -539l43 -140h8l38 144l160 535h270l-352 -936h225v-148h-227v-219h-250v219h-228v148h225z" />
    <glyph glyph-name="cyrHadesc" unicode="&#x4b2;" horiz-adv-x="1479" 
d="M549 689l-451 667h346l247 -383l63 -103l64 103l268 383h316l-476 -650l320 -454h215v-492h-204l-31 240h-145l-289 412l-69 100l-68 -100l-284 -412h-316z" />
    <glyph glyph-name="cyrhadesc" unicode="&#x4b3;" 
d="M579 211l-74 132l-79 -134l-127 -209h-275l308 479l-287 457h302l104 -183l74 -133l76 135l111 181h274l-289 -449l156 -266h151v-434h-184l-29 213h-86z" />
    <glyph glyph-name="cyrTeTse" unicode="&#x4b4;" horiz-adv-x="1776" 
d="M1716 -240h-203l-31 240h-1080v1104h-342v252h971v-252h-342v-852h552v1104h287v-1104h188v-492z" />
    <glyph glyph-name="cyrtetse" unicode="&#x4b5;" horiz-adv-x="1247" 
d="M1222 -213h-176l-30 213h-781v714h-215v222h680v-222h-215v-493h338v715h250v-715h149v-434z" />
    <glyph glyph-name="cyrChedesc" unicode="&#x4b6;" horiz-adv-x="1503" 
d="M980 542q-26 -13 -66 -26.5t-90 -25t-109 -18.5t-123 -7q-89 0 -167.5 22t-137.5 68.5t-93 118t-34 170.5v512h287v-429q0 -112 67 -167.5t181 -55.5q40 0 82 6t80 15.5t70 21.5t53 24v585h286v-1104h181v-492h-203l-31 240h-233v542z" />
    <glyph glyph-name="cyrchedesc" unicode="&#x4b7;" horiz-adv-x="1155" 
d="M741 381q-20 -12 -48.5 -27t-64.5 -28.5t-79 -22.5t-93 -9q-73 0 -134 17t-104.5 56.5t-68 105t-24.5 161.5v302h250v-194q0 -68 8 -114t27 -73.5t50.5 -39.5t78.5 -12q30 0 59.5 4t56 11t49 16t37.5 20v382h249v-715h130v-434h-183l-29 213h-167v381z" />
    <glyph glyph-name="cyrChevertbar" unicode="&#x4b8;" horiz-adv-x="1503" 
d="M639 467q-10 -1 -28.5 -1.5t-34.5 -0.5q-91 0 -166.5 21t-129.5 67t-84 117.5t-30 172.5v513h286v-429q0 -109 44 -165t143 -58v226h194v-215q50 6 97 20.5t76 31.5v589h287v-1356h-287v542q-26 -15 -70.5 -29t-102.5 -25v-255h-194v234z" />
    <glyph glyph-name="cyrchevertbar" unicode="&#x4b9;" horiz-adv-x="1155" 
d="M504 299q-10 -1 -17.5 -1.5t-14 -1t-14 -0.5h-18.5q-72 0 -131.5 15t-102 52t-66.5 98t-24 154v321h250v-233q0 -41 3 -77.5t16.5 -63.5t41.5 -42.5t77 -15.5v219h140v-214q31 4 59.5 14t52.5 24v389h249v-936h-249v379q-21 -14 -52 -29t-60 -22v-218h-140v189z" />
    <glyph glyph-name="cyrH" unicode="&#x4ba;" horiz-adv-x="1503" 
d="M1050 0v422q0 115 -67.5 172t-187.5 57q-82 0 -160.5 -19t-137.5 -48v-584h-287v1356h287v-545q27 14 70 28.5t96.5 26t113 18.5t118.5 7q39 0 80 -5t80.5 -14.5t75.5 -25t65 -36.5q68 -50 104.5 -132t36.5 -211v-467h-287z" />
    <glyph glyph-name="cyrh" unicode="&#x4bb;" horiz-adv-x="1139" 
d="M708 0v515q0 39 -6 79t-23.5 73t-48.5 54t-81 21q-66 0 -116.5 -45t-78.5 -121v-576h-249v1377h249v-555h22q22 28 50 53.5t63 45t77.5 30.5t93.5 11q62 0 116 -19t94.5 -64t64 -120.5t23.5 -189.5v-569h-250z" />
    <glyph glyph-name="cyrIehook" unicode="&#x4bc;" horiz-adv-x="1803" 
d="M719 562q15 -87 56 -150.5t101 -105t137 -61.5t165 -20q94 0 184.5 26t167.5 71l71 -241q-40 -23 -91 -43t-109.5 -34.5t-122.5 -22.5t-130 -8q-138 0 -261.5 36.5t-220.5 111.5q-46 36 -85.5 85t-70 106.5t-50.5 121t-27 128.5h-72q-105 0 -174 26t-109.5 69.5
t-56.5 98.5t-16 114q0 45 13.5 80t34.5 61h242q-20 -26 -29.5 -56.5t-9.5 -57.5q0 -14 4 -33.5t21.5 -37t53 -27t98.5 -3.5q13 118 67 224.5t142 187t204.5 127.5t253.5 47q132 0 241 -39.5t187.5 -114.5t121.5 -184t43 -248q0 -107 -21 -234h-953zM1415 798q3 17 3.5 35
t0.5 37q0 58 -21 108t-61 87.5t-97.5 59t-129.5 21.5q-76 0 -145.5 -22t-123 -65.5t-86.5 -108.5t-36 -152h696z" />
    <glyph glyph-name="cyriehook" unicode="&#x4bd;" horiz-adv-x="1155" 
d="M1070 60q-53 -40 -135 -63.5t-185 -23.5q-102 0 -180 26t-133 81q-29 28 -51.5 64.5t-39 77.5t-25.5 85.5t-10 88.5q-154 2 -234.5 68t-75.5 199q1 37 14 67t38 61h201q-22 -21 -37 -49t-15 -67q0 -56 30.5 -78t85.5 -24q12 81 42 148t72 115q56 64 135.5 95t173.5 31
q88 0 155 -26.5t112.5 -75.5t68.5 -120t23 -159q0 -44 -4.5 -93t-12.5 -86h-523q0 -49 10.5 -93.5t36.5 -77.5q26 -34 70 -48t98 -14q67 0 120.5 21t90.5 47zM727 766q-48 0 -79.5 -18t-50.5 -47.5t-27.5 -68t-9.5 -78.5h307q3 30 3 55q-2 71 -38.5 114t-104.5 43z" />
    <glyph glyph-name="cyrIehookogonek" unicode="&#x4be;" horiz-adv-x="1803" 
d="M719 562q15 -87 56 -150.5t101 -105t137 -61.5t165 -20q94 0 184.5 26t167.5 71l71 -241q-69 -40 -167 -68.5t-209 -36.5l-28 -313h-183l-42 326q-87 16 -164 48.5t-142 83.5q-46 36 -85.5 85t-70 106.5t-50.5 121t-27 128.5h-72q-105 0 -174 26t-109.5 69.5t-56.5 98.5
t-16 114q0 45 13.5 80t34.5 61h242q-20 -26 -29.5 -56.5t-9.5 -57.5q0 -14 4 -33.5t21.5 -37t53 -27t98.5 -3.5q13 118 67 224.5t142 187t204.5 127.5t253.5 47q132 0 241 -39.5t187.5 -114.5t121.5 -184t43 -248q0 -107 -21 -234h-953zM1415 798q3 17 3.5 35t0.5 37
q0 58 -21 108t-61 87.5t-97.5 59t-129.5 21.5q-76 0 -145.5 -22t-123 -65.5t-86.5 -108.5t-36 -152h696z" />
    <glyph glyph-name="cyriehookogonek" unicode="&#x4bf;" horiz-adv-x="1155" 
d="M1070 60q-38 -29 -92.5 -49.5t-121.5 -29.5l-26 -296h-169l-36 300q-117 23 -188 95q-29 28 -51.5 64.5t-39 77.5t-25.5 85.5t-10 88.5q-154 2 -234.5 68t-75.5 199q1 37 14 67t38 61h199q-22 -21 -36 -49t-14 -67q0 -56 31 -78t85 -24q12 81 42 148t72 115
q56 64 135.5 95t173.5 31q88 0 155 -26.5t112.5 -75.5t68.5 -120t23 -159q0 -44 -4.5 -93t-12.5 -86h-523q0 -49 10.5 -93.5t36.5 -77.5q26 -34 70 -48t98 -14q67 0 120.5 21t90.5 47zM727 766q-48 0 -79.5 -18t-50.5 -47.5t-27.5 -68t-9.5 -78.5h307q3 30 3 55
q-2 71 -38.5 114t-104.5 43z" />
    <glyph glyph-name="cyrI" unicode="&#x4c0;" horiz-adv-x="797" 
d="M256 1201h-161v155h607v-155h-160v-1046h160v-155h-607v155h161v1046z" />
    <glyph glyph-name="cyrKahook" unicode="&#x4c3;" horiz-adv-x="1510" 
d="M1126 148q0 106 -31 182t-94 131q-65 57 -159.5 84.5t-211.5 27.5h-134v-573h-286v1356h286v-597l86 30l469 567h327l-474 -541l-92 -83l92 -3q40 -6 87 -21t94.5 -37.5t92 -52.5t78.5 -66q67 -71 108 -164.5t41 -203.5q0 -159 -41.5 -271.5t-110.5 -184t-159.5 -104.5
t-188.5 -33q-15 0 -35 0.5t-40.5 2t-41 3.5t-36.5 5v229q7 -1 18.5 -1.5t24 -0.5h23.5h19q61 0 113.5 18t91.5 56t61.5 98.5t22.5 146.5z" />
    <glyph glyph-name="cyrkahook" unicode="&#x4c4;" horiz-adv-x="1215" 
d="M874 88q0 74 -26 124.5t-69 86.5q-53 44 -124.5 62t-143.5 18h-101v-379h-250v936h250v-413l104 36l306 377h287l-316 -356l-79 -64l74 -10q81 -14 143.5 -53.5t105.5 -94t65.5 -119.5t22.5 -129v-43q0 -115 -40 -200.5t-104.5 -142t-146.5 -84.5t-166 -28q-29 0 -63.5 2
t-66.5 10v209q8 -1 20 -1.5t25 -0.5h25h19q62 0 108.5 19.5t78 53.5t47 81t15.5 103z" />
    <glyph glyph-name="cyrEltail" unicode="&#x4c5;" horiz-adv-x="1526" 
d="M1017 1104h-354q-9 -185 -19.5 -332.5t-29.5 -265.5t-49 -209.5t-78 -163.5q-31 -44 -69 -73t-78 -45.5t-79 -23t-72 -6.5q-19 0 -39 2t-38.5 6t-34.5 9.5t-27 12.5l31 240q20 -7 50 -7q33 0 66 15.5t58 50.5q31 42 54.5 122t41 206.5t28 303t14.5 410.5h911v-1116h207
v-62l-199 -430h-199l94 252h-190v1104z" />
    <glyph glyph-name="cyreltail" unicode="&#x4c6;" horiz-adv-x="1149" 
d="M728 714h-220q-5 -149 -21 -281t-53 -230.5t-98.5 -155.5t-156.5 -57q-113 0 -159 24l35 221q31 -9 56 -9q43 0 75 30.5t53 109.5q11 39 19 92.5t14 123.5t10.5 158t7.5 196h687v-715h162v-57l-183 -377h-184l88 213h-132v714z" />
    <glyph glyph-name="cyrEnhook" unicode="&#x4c7;" horiz-adv-x="1593" 
d="M1383 -35q0 -176 -73 -275t-239 -99q-34 0 -67.5 4t-71.5 11v225q55 -5 88.5 3.5t49.5 29.5t21 53.5t5 76.5v566h-600v-560h-286v1356h286v-545h600v545h287v-1391z" />
    <glyph glyph-name="cyrenhook" unicode="&#x4c8;" horiz-adv-x="1180" 
d="M400 936v-348h381v348h249v-980q0 -167 -68 -255.5t-220 -88.5q-29 0 -60 3t-67 9v209q52 -5 84 4t51 28.5t25 48.5t6 69v379h-381v-362h-250v936h250z" />
    <glyph glyph-name="cyrEntail" unicode="&#x4c9;" horiz-adv-x="1593" 
d="M1075 560h-579v-560h-286v1356h286v-545h579v545h287v-1116h216v-62l-199 -430h-200l96 252h-200v560z" />
    <glyph glyph-name="cyrentail" unicode="&#x4ca;" horiz-adv-x="1180" 
d="M760 362h-361v-362h-249v936h249v-348h361v348h248v-715h157v-57l-183 -377h-184l88 213h-126v362z" />
    <glyph glyph-name="cyrChedescleft" unicode="&#x4cb;" horiz-adv-x="1503" 
d="M453 1356v-419q0 -112 64.5 -172.5t179.5 -60.5q40 0 77.5 2.5t74 9.5t75 20.5t82.5 34.5v585h287v-1356h-250l-29 -240h-205v492h197v290q-30 -17 -74.5 -31t-98.5 -24t-115 -16t-125 -6q-89 0 -166.5 22t-135.5 68.5t-91.5 118t-33.5 170.5v512h287z" />
    <glyph glyph-name="cyrchedescleft" unicode="&#x4cc;" horiz-adv-x="1155" 
d="M752 401q-20 -12 -48.5 -24.5t-65.5 -23.5t-82 -18t-98 -7q-77 0 -137 17.5t-101.5 55t-63 96t-21.5 141.5v298h250v-189q0 -54 8 -94t27 -66t51 -39t80 -13q60 0 110.5 17t90.5 40v344h248v-936h-250l-32 -213h-177v398h211v216z" />
    <glyph glyph-name="cyrEmtail" unicode="&#x4cd;" horiz-adv-x="1933" 
d="M1405 680l25 241h-5l-93 -171l-340 -508h-89l-353 508l-82 169h-6l19 -237v-682h-271v1356h260l421 -626l70 -119h9l63 123l401 622h258v-1116h226v-62l-200 -430h-199l94 252h-208v680z" />
    <glyph glyph-name="cyremtail" unicode="&#x4ce;" horiz-adv-x="1395" 
d="M992 415l9 203h-3l-96 -161l-182 -288h-88l-183 288l-92 161h-4l6 -201v-417h-221v936h257l221 -350l70 -117h2l69 123l218 344h255v-715h150v-57l-184 -377h-183l87 213h-108v415z" />
    <glyph glyph-name="uni04CF" unicode="&#x4cf;" horiz-adv-x="569" 
d="M170 1356h249v-1356h-249v1356z" />
    <glyph glyph-name="cyrAcyrbreve" unicode="&#x4d0;" horiz-adv-x="1479" 
d="M1013 288h-563l-123 -288h-287l593 1365h211l595 -1365h-304zM547 515h370l-119 283l-61 175h-8l-62 -177zM594 1748q11 -60 51.5 -85.5t105.5 -25.5q140 0 157 109l235 -33q-24 -126 -122.5 -181.5t-271.5 -55.5q-85 0 -156.5 11t-125.5 38t-88 70.5t-44 111.5z" />
    <glyph glyph-name="cyracyrbreve" unicode="&#x4d1;" 
d="M147 876q57 25 107 40t98 23.5t97 11t103 2.5q99 0 166.5 -23.5t109 -67t59.5 -104.5t18 -136q0 -91 -7 -180t-7 -189q0 -69 9 -132t29 -123h-204l-40 139h-22q-27 -44 -61 -73.5t-72 -46.5t-78.5 -24t-81.5 -7q-64 0 -116.5 19t-90 55.5t-58 89t-20.5 120.5
q0 91 35 154.5t101 101.5q50 29 115.5 41.5t138.5 12.5q12 0 32.5 -1t44.5 -3.5t50.5 -7t52.5 -10.5q2 19 3.5 34.5t1.5 29.5q0 34 -9.5 56.5t-26.5 38.5t-52 26t-83 10q-42 0 -79 -5.5t-70.5 -14.5t-64.5 -21t-62 -25zM463 185q34 0 64.5 10t56 27t44 39t29.5 45v105
q-14 4 -31.5 8t-37 7t-39 5t-36.5 2q-48 0 -81 -12.5t-53 -32.5t-29 -44.5t-9 -48.5q0 -57 30.5 -83.5t91.5 -26.5zM382 1437q7 -41 20 -67.5t31 -43t41.5 -23t52.5 -6.5q61 0 95 30.5t50 107.5l202 -53q-14 -65 -47.5 -113t-81 -79.5t-106 -47t-121.5 -15.5q-65 0 -125 14
t-109 44.5t-83.5 79t-48.5 117.5z" />
    <glyph glyph-name="cyrAdieresis" unicode="&#x4d2;" horiz-adv-x="1479" 
d="M1013 288h-563l-123 -288h-287l593 1365h211l595 -1365h-304zM547 515h370l-119 283l-61 175h-8l-62 -177zM355 1585q0 53 38 84.5t123 31.5q81 0 119 -31.5t38 -84.5q0 -50 -38 -80t-119 -30q-85 0 -123 30t-38 80zM806 1585q0 53 38 84.5t119 31.5q85 0 123 -31.5
t38 -84.5q0 -50 -38 -80t-123 -30q-81 0 -119 30t-38 80z" />
    <glyph glyph-name="cyradieresis" unicode="&#x4d3;" 
d="M147 876q57 25 107 40t98 23.5t97 11t103 2.5q99 0 166.5 -23.5t109 -67t59.5 -104.5t18 -136q0 -91 -7 -180t-7 -189q0 -69 9 -132t29 -123h-204l-40 139h-22q-27 -44 -61 -73.5t-72 -46.5t-78.5 -24t-81.5 -7q-64 0 -116.5 19t-90 55.5t-58 89t-20.5 120.5
q0 91 35 154.5t101 101.5q50 29 115.5 41.5t138.5 12.5q12 0 32.5 -1t44.5 -3.5t50.5 -7t52.5 -10.5q2 19 3.5 34.5t1.5 29.5q0 34 -9.5 56.5t-26.5 38.5t-52 26t-83 10q-42 0 -79 -5.5t-70.5 -14.5t-64.5 -21t-62 -25zM463 185q34 0 64.5 10t56 27t44 39t29.5 45v105
q-14 4 -31.5 8t-37 7t-39 5t-36.5 2q-48 0 -81 -12.5t-53 -32.5t-29 -44.5t-9 -48.5q0 -57 30.5 -83.5t91.5 -26.5zM145 1257q0 67 41.5 107.5t107.5 40.5t106 -40.5t40 -107.5q0 -59 -40 -99.5t-106 -40.5t-107.5 40.5t-41.5 99.5zM575 1257q0 67 39.5 107.5t105.5 40.5
q68 0 108 -40.5t40 -107.5q0 -59 -40 -99.5t-108 -40.5q-66 0 -105.5 40.5t-39.5 99.5z" />
    <glyph glyph-name="cyrAE" unicode="&#x4d4;" horiz-adv-x="2048" 
d="M909 960l-85 -139l-169 -269h258v408h-4zM913 320h-391l-206 -320h-306l894 1356h992v-252h-696v-295h644v-251h-644v-306h706v-252h-993v320z" />
    <glyph glyph-name="cyrae" unicode="&#x4d5;" horiz-adv-x="1479" 
d="M1389 60q-53 -40 -135 -63.5t-185 -23.5q-51 0 -103 9t-99.5 29t-88.5 53.5t-71 82.5h-19q-34 -47 -72.5 -77.5t-79.5 -49.5t-83 -26.5t-83 -7.5q-64 0 -116.5 20.5t-90 58t-58 89.5t-20.5 116q0 91 37.5 156t103.5 103q50 29 110.5 40t133.5 11q25 0 66.5 -4.5
t92.5 -17.5q2 19 3.5 34.5t1.5 29.5q0 67 -41.5 99t-108.5 32q-42 0 -78 -5.5t-68.5 -14.5t-63 -21t-61.5 -25l-66 189q54 23 99.5 38t90 23.5t90.5 12t100 3.5q93 0 154 -25.5t105 -71.5q60 51 126.5 78.5t147.5 27.5q88 0 155 -26.5t112.5 -75.5t68.5 -120t23 -159
q0 -44 -4.5 -93t-12.5 -86h-523q0 -49 10.5 -93.5t36.5 -77.5q26 -34 70 -48t98 -14q67 0 120.5 21t90.5 47zM453 185q34 0 62.5 10.5t51 27.5t39 38.5t25.5 44.5v105q-27 8 -57.5 15t-65.5 7q-48 0 -80 -12t-51.5 -31.5t-27.5 -43t-8 -47.5q0 -50 25.5 -82t86.5 -32z
M1046 766q-48 0 -79.5 -18t-50.5 -47.5t-27.5 -68t-9.5 -78.5h307q3 30 3 55q-2 71 -38.5 114t-104.5 43z" />
    <glyph glyph-name="cyrIecyrbreve" unicode="&#x4d6;" horiz-adv-x="1366" 
d="M210 1356h993v-252h-706v-295h651v-251h-651v-306h715v-252h-1002v1356zM563 1748q11 -60 51.5 -85.5t105.5 -25.5q140 0 157 109l235 -33q-24 -126 -122.5 -181.5t-271.5 -55.5q-85 0 -156.5 11t-125.5 38t-88 70.5t-44 111.5z" />
    <glyph glyph-name="cyriecyrbreve" unicode="&#x4d7;" horiz-adv-x="909" 
d="M824 60q-53 -40 -135 -63.5t-185 -23.5q-102 0 -180.5 25.5t-134.5 79.5q-66 65 -97.5 166t-31.5 218q0 121 35.5 216t90.5 158q56 64 135.5 95t173.5 31q88 0 155 -26.5t112.5 -75.5t68.5 -120t23 -159q0 -44 -4.5 -93t-12.5 -86h-523q0 -49 10.5 -93.5t36.5 -77.5
q26 -34 70 -48t98 -14q67 0 120.5 21t90.5 47zM481 766q-48 0 -79.5 -18t-50.5 -47.5t-27.5 -68t-9.5 -78.5h307q3 30 3 55q-2 71 -38.5 114t-104.5 43zM342 1437q7 -41 20 -67.5t31 -43t41.5 -23t52.5 -6.5q61 0 95 30.5t50 107.5l202 -53q-14 -65 -47.5 -113t-81 -79.5
t-106 -47t-121.5 -15.5q-65 0 -125 14t-109 44.5t-83.5 79t-48.5 117.5z" />
    <glyph glyph-name="cyrinvE" unicode="&#x4d8;" horiz-adv-x="1513" 
d="M425 564q-4 -17 -4.5 -30t-0.5 -30q0 -59 22 -112t62.5 -94t97 -65t126.5 -24q73 0 133 22.5t103 67t66 111t23 154.5h-628zM1053 800q-19 157 -112.5 244t-273.5 87q-50 0 -102 -7t-100.5 -19t-92.5 -29t-78 -36l-56 244q96 45 210.5 71.5t242.5 26.5q144 0 263 -41.5
t204.5 -128t133 -219t47.5 -315.5q0 -153 -37.5 -282t-114 -223t-193 -147t-275.5 -53q-143 0 -254 47.5t-187 131.5t-115 198.5t-39 248.5q0 54 5.5 101.5t14.5 99.5h909z" />
    <glyph glyph-name="cyrinve" unicode="&#x4d9;" horiz-adv-x="909" 
d="M85 867q54 37 135.5 66t184.5 29q102 0 180.5 -25.5t134.5 -79.5q66 -65 97.5 -166t31.5 -218q0 -121 -35.5 -216t-90.5 -158q-56 -64 -135.5 -95t-173.5 -31q-88 0 -155 26.5t-112.5 75.5t-68.5 119.5t-23 159.5q0 44 4.5 93t12.5 86h523q0 49 -10.5 93.5t-36.5 77.5
q-26 34 -70 48t-98 14q-33 0 -63.5 -7.5t-57 -19t-49.5 -24.5t-41 -25zM428 169q48 0 79.5 18t50.5 47.5t27.5 67.5t9.5 79h-307q-3 -30 -3 -55q2 -71 38.5 -114t104.5 -43z" />
    <glyph glyph-name="cyrinvEdieresis" unicode="&#x4da;" horiz-adv-x="1513" 
d="M425 564q-4 -17 -4.5 -30t-0.5 -30q0 -59 22 -112t62.5 -94t97 -65t126.5 -24q73 0 133 22.5t103 67t66 111t23 154.5h-628zM1053 800q-19 157 -112.5 244t-273.5 87q-50 0 -102 -7t-100.5 -19t-92.5 -29t-78 -36l-56 244q96 45 210.5 71.5t242.5 26.5q144 0 263 -41.5
t204.5 -128t133 -219t47.5 -315.5q0 -153 -37.5 -282t-114 -223t-193 -147t-275.5 -53q-143 0 -254 47.5t-187 131.5t-115 198.5t-39 248.5q0 54 5.5 101.5t14.5 99.5h909zM309 1585q0 53 38 84.5t123 31.5q81 0 119 -31.5t38 -84.5q0 -50 -38 -80t-119 -30q-85 0 -123 30
t-38 80zM760 1585q0 53 38 84.5t119 31.5q85 0 123 -31.5t38 -84.5q0 -50 -38 -80t-123 -30q-81 0 -119 30t-38 80z" />
    <glyph glyph-name="cyrinvedieresis" unicode="&#x4db;" horiz-adv-x="909" 
d="M85 867q54 37 135.5 66t184.5 29q102 0 180.5 -25.5t134.5 -79.5q66 -65 97.5 -166t31.5 -218q0 -121 -35.5 -216t-90.5 -158q-56 -64 -135.5 -95t-173.5 -31q-88 0 -155 26.5t-112.5 75.5t-68.5 119.5t-23 159.5q0 44 4.5 93t12.5 86h523q0 49 -10.5 93.5t-36.5 77.5
q-26 34 -70 48t-98 14q-33 0 -63.5 -7.5t-57 -19t-49.5 -24.5t-41 -25zM428 169q48 0 79.5 18t50.5 47.5t27.5 67.5t9.5 79h-307q-3 -30 -3 -55q2 -71 38.5 -114t104.5 -43zM83 1254q0 67 41.5 107.5t107.5 40.5t106 -40.5t40 -107.5q0 -59 -40 -99.5t-106 -40.5
t-107.5 40.5t-41.5 99.5zM513 1254q0 67 39.5 107.5t105.5 40.5q68 0 108 -40.5t40 -107.5q0 -59 -40 -99.5t-108 -40.5q-66 0 -105.5 40.5t-39.5 99.5z" />
    <glyph glyph-name="cyrZhedieresis" unicode="&#x4dc;" horiz-adv-x="2025" 
d="M866 1356h272v-599l94 27l388 572h325l-424 -595l-51 -68l72 -83l462 -610h-347l-419 582h-100v-582h-272v606l-89 -27l-420 -579h-336l459 591l65 78l-61 72l-440 615h336l385 -576h101v576zM628 1585q0 53 38 84.5t123 31.5q81 0 119 -31.5t38 -84.5q0 -50 -38 -80
t-119 -30q-85 0 -123 30t-38 80zM1079 1585q0 53 38 84.5t119 31.5q85 0 123 -31.5t38 -84.5q0 -50 -38 -80t-123 -30q-81 0 -119 30t-38 80z" />
    <glyph glyph-name="cyrzhedieresis" unicode="&#x4dd;" horiz-adv-x="1485" 
d="M529 381l-236 -381h-283l285 424l39 61l-65 78l-249 373h272l226 -380h98v380h235v-405l88 32l227 373h268l-253 -375l-43 -66l62 -78l275 -417h-289l-237 388h-98v-388h-235v411zM381 1257q0 67 41.5 107.5t107.5 40.5t106 -40.5t40 -107.5q0 -59 -40 -99.5t-106 -40.5
t-107.5 40.5t-41.5 99.5zM811 1257q0 67 39.5 107.5t105.5 40.5q68 0 108 -40.5t40 -107.5q0 -59 -40 -99.5t-108 -40.5q-66 0 -105.5 40.5t-39.5 99.5z" />
    <glyph glyph-name="cyrZedieresis" unicode="&#x4de;" horiz-adv-x="1081" 
d="M251 595v218h30q40 0 78 0.5t74 4t70 12t66 24.5q39 20 61.5 51t22.5 73q0 44 -18 73.5t-45 44.5q-31 17 -68 24t-90 7q-46 0 -89.5 -7t-82 -18t-69.5 -24t-52 -25l-72 244q21 10 61.5 24t94.5 27t118 22t132 9q93 0 180 -15.5t154.5 -54.5t108.5 -105t41 -166
q0 -114 -65 -191.5t-179 -116.5v-11q137 -22 212.5 -106.5t75.5 -224.5q0 -109 -48 -187t-127 -129q-78 -50 -180 -74.5t-207 -24.5q-70 0 -130.5 7t-110.5 18.5t-90.5 25.5t-69.5 28l74 248q44 -19 83.5 -33t79 -23.5t80 -14t87.5 -4.5q45 0 90.5 9.5t82 31t60 57
t23.5 87.5q0 31 -8.5 57t-28.5 47.5t-52.5 37t-80.5 25.5q-65 13 -124.5 15.5t-122.5 2.5h-30zM96 1585q0 53 38 84.5t123 31.5q81 0 119 -31.5t38 -84.5q0 -50 -38 -80t-119 -30q-85 0 -123 30t-38 80zM547 1585q0 53 38 84.5t119 31.5q85 0 123 -31.5t38 -84.5
q0 -50 -38 -80t-123 -30q-81 0 -119 30t-38 80z" />
    <glyph glyph-name="cyrzedieresis" unicode="&#x4df;" horiz-adv-x="823" 
d="M234 388v168h76q81 0 127 25.5t46 70.5q0 26 -13 43.5t-35 28.5t-51 15.5t-61 4.5q-65 0 -119 -17.5t-94 -36.5l-49 185q74 42 157.5 60t172.5 18q174 0 258.5 -64.5t84.5 -177.5q0 -31 -11 -61.5t-32 -58t-51 -50t-67 -37.5v-15q100 -22 150 -77.5t50 -151.5
q0 -57 -24.5 -108.5t-76 -90.5t-131 -62t-188.5 -23q-54 0 -100 6.5t-84.5 17.5t-71 24.5t-59.5 27.5q12 48 26 96t30 97q48 -26 108 -43t141 -17q180 0 180 109q0 24 -11 41.5t-38 29.5t-73 17.5t-115 5.5h-52zM2 1257q0 67 41.5 107.5t107.5 40.5t106 -40.5t40 -107.5
q0 -59 -40 -99.5t-106 -40.5t-107.5 40.5t-41.5 99.5zM432 1257q0 67 39.5 107.5t105.5 40.5q68 0 108 -40.5t40 -107.5q0 -59 -40 -99.5t-108 -40.5q-66 0 -105.5 40.5t-39.5 99.5z" />
    <glyph glyph-name="cyrDze" unicode="&#x4e0;" horiz-adv-x="1081" 
d="M446 225q60 0 110 12t86 37t56 62.5t20 88.5q0 52 -19.5 88t-61 58t-105.5 31.5t-152 9.5h-167v124l301 312l84 80l-113 -21h-384v249h837v-159l-308 -343l-94 -63v-3l96 12q40 0 84.5 -10t88 -30t82.5 -51.5t69 -73.5t47.5 -95t17.5 -118q0 -102 -38.5 -185t-111 -141.5
t-176.5 -90.5t-234 -32q-46 0 -97 3.5t-103 13t-103 25.5t-98 40l69 242q29 -14 67 -27t79.5 -23t85.5 -16t85 -6z" />
    <glyph glyph-name="cyrdze" unicode="&#x4e1;" horiz-adv-x="939" 
d="M394 -179q45 0 87.5 10t75.5 33.5t53 61t20 93.5q0 55 -19.5 92.5t-60 61t-102.5 33.5t-146 10h-102v101l240 319l89 97l-131 -5h-320v208h747v-136l-273 -337l-67 -62l47 1q26 -3 57 -12.5t62.5 -24t61.5 -33t54 -40.5q25 -23 45.5 -51.5t35.5 -59.5t23 -63t8 -62
q0 -110 -33.5 -193t-96 -138.5t-150.5 -84t-196 -28.5q-49 0 -101.5 7.5t-102 19.5t-93 27.5t-74.5 31.5l82 193q27 -15 57 -27.5t64 -22t73.5 -15t85.5 -5.5z" />
    <glyph glyph-name="cyrImacron" unicode="&#x4e2;" horiz-adv-x="1593" 
d="M1095 748l13 162h-7l-99 -161l-580 -749h-212v1356h286v-730l-17 -171h10l105 167l573 734h216v-1356h-288v748zM430 1675h723v-179h-723v179z" />
    <glyph glyph-name="cyrimacron" unicode="&#x4e3;" horiz-adv-x="1180" 
d="M780 422l7 129l-108 -127l-379 -424h-150v936h249v-441l-4 -128l105 128l380 441h150v-936h-250v422zM263 1315h680v-184h-680v184z" />
    <glyph glyph-name="cyrIdieresis" unicode="&#x4e4;" horiz-adv-x="1593" 
d="M1095 748l13 162h-7l-99 -161l-580 -749h-212v1356h286v-730l-17 -171h10l105 167l573 734h216v-1356h-288v748zM412 1585q0 53 38 84.5t123 31.5q81 0 119 -31.5t38 -84.5q0 -50 -38 -80t-119 -30q-85 0 -123 30t-38 80zM863 1585q0 53 38 84.5t119 31.5q85 0 123 -31.5
t38 -84.5q0 -50 -38 -80t-123 -30q-81 0 -119 30t-38 80z" />
    <glyph glyph-name="cyridieresis" unicode="&#x4e5;" horiz-adv-x="1180" 
d="M780 422l7 129l-108 -127l-379 -424h-150v936h249v-441l-4 -128l105 128l380 441h150v-936h-250v422zM229 1257q0 67 41.5 107.5t107.5 40.5t106 -40.5t40 -107.5q0 -59 -40 -99.5t-106 -40.5t-107.5 40.5t-41.5 99.5zM659 1257q0 67 39.5 107.5t105.5 40.5
q68 0 108 -40.5t40 -107.5q0 -59 -40 -99.5t-108 -40.5q-66 0 -105.5 40.5t-39.5 99.5z" />
    <glyph glyph-name="cyrOdieresis" unicode="&#x4e6;" horiz-adv-x="1593" 
d="M115 676q0 168 49 299.5t138.5 221.5t214.5 137.5t278 47.5q162 0 288.5 -51t214.5 -144t134 -222.5t46 -286.5q0 -158 -46 -288t-134 -223t-214.5 -144t-288.5 -51q-153 0 -278 47.5t-214.5 137.5t-138.5 221t-49 298zM418 678q0 -117 27 -203t76.5 -142t119 -83
t154.5 -27q97 0 168.5 35t118 96t69 144.5t22.5 179.5t-22.5 179t-69 143.5t-118 95.5t-168.5 35q-85 0 -154.5 -27t-119 -83t-76.5 -141.5t-27 -201.5zM412 1585q0 53 38 84.5t123 31.5q81 0 119 -31.5t38 -84.5q0 -50 -38 -80t-119 -30q-85 0 -123 30t-38 80zM863 1585
q0 53 38 84.5t119 31.5q85 0 123 -31.5t38 -84.5q0 -50 -38 -80t-123 -30q-81 0 -119 30t-38 80z" />
    <glyph glyph-name="cyrodieresis" unicode="&#x4e7;" 
d="M60 467q0 109 29.5 200t87 156.5t142 102t194.5 36.5q112 0 197 -37.5t141 -104t84.5 -157t28.5 -196.5t-28.5 -196.5t-84.5 -157t-141 -104t-197 -37.5q-110 0 -194.5 36.5t-142 102t-87 156.5t-29.5 200zM317 467q0 -75 14 -129.5t39.5 -89t61.5 -51t81 -16.5
q53 0 90 21.5t60.5 59.5t34.5 90.5t11 114.5t-11 114.5t-34.5 90.5t-60.5 59.5t-90 21.5q-45 0 -81 -16.5t-61.5 -51t-39.5 -89t-14 -129.5zM151 1257q0 67 41.5 107.5t107.5 40.5t106 -40.5t40 -107.5q0 -59 -40 -99.5t-106 -40.5t-107.5 40.5t-41.5 99.5zM581 1257
q0 67 39.5 107.5t105.5 40.5q68 0 108 -40.5t40 -107.5q0 -59 -40 -99.5t-108 -40.5q-66 0 -105.5 40.5t-39.5 99.5z" />
    <glyph glyph-name="cyrObar" unicode="&#x4e8;" horiz-adv-x="1593" 
d="M115 676q0 168 49 299.5t138.5 221.5t214.5 137.5t278 47.5q162 0 288.5 -51t214.5 -144t134 -222.5t46 -286.5q0 -158 -46 -288t-134 -223t-214.5 -144t-288.5 -51q-153 0 -278 47.5t-214.5 137.5t-138.5 221t-49 298zM795 223q82 0 146 25.5t110 71t74 109t40 138.5
h-740q12 -89 43.5 -153.5t79.5 -107t110.5 -63t136.5 -20.5zM795 1131q-74 0 -136 -20.5t-109.5 -62t-79 -105t-44.5 -149.5h738q-12 74 -40.5 136t-74.5 106.5t-109 69.5t-145 25z" />
    <glyph glyph-name="cyrobar" unicode="&#x4e9;" 
d="M60 467q0 118 32 210.5t91 155.5t142.5 96t186.5 33q109 0 193 -36.5t141.5 -101.5t87.5 -156.5t30 -200.5q0 -116 -33 -207.5t-92.5 -155.5t-142.5 -97.5t-184 -33.5q-109 0 -193.5 36.5t-142 102t-87 156.5t-29.5 199zM709 542q-16 106 -63.5 158.5t-133.5 52.5
q-46 0 -80 -16t-58 -44.5t-38 -67t-19 -83.5h392zM317 391q12 -99 64 -154t131 -55q48 0 82 15.5t57 43.5t37 66.5t21 83.5h-392z" />
    <glyph glyph-name="cyrObardieresis" unicode="&#x4ea;" horiz-adv-x="1593" 
d="M115 676q0 168 49 299.5t138.5 221.5t214.5 137.5t278 47.5q162 0 288.5 -51t214.5 -144t134 -222.5t46 -286.5q0 -158 -46 -288t-134 -223t-214.5 -144t-288.5 -51q-153 0 -278 47.5t-214.5 137.5t-138.5 221t-49 298zM795 223q82 0 146 25.5t110 71t74 109t40 138.5
h-740q12 -89 43.5 -153.5t79.5 -107t110.5 -63t136.5 -20.5zM795 1131q-74 0 -136 -20.5t-109.5 -62t-79 -105t-44.5 -149.5h738q-12 74 -40.5 136t-74.5 106.5t-109 69.5t-145 25zM412 1585q0 53 38 84.5t123 31.5q81 0 119 -31.5t38 -84.5q0 -50 -38 -80t-119 -30
q-85 0 -123 30t-38 80zM863 1585q0 53 38 84.5t119 31.5q85 0 123 -31.5t38 -84.5q0 -50 -38 -80t-123 -30q-81 0 -119 30t-38 80z" />
    <glyph glyph-name="cyrobardieresis" unicode="&#x4eb;" 
d="M60 467q0 118 32 210.5t91 155.5t142.5 96t186.5 33q109 0 193 -36.5t141.5 -101.5t87.5 -156.5t30 -200.5q0 -116 -33 -207.5t-92.5 -155.5t-142.5 -97.5t-184 -33.5q-109 0 -193.5 36.5t-142 102t-87 156.5t-29.5 199zM709 542q-16 106 -63.5 158.5t-133.5 52.5
q-46 0 -80 -16t-58 -44.5t-38 -67t-19 -83.5h392zM317 391q12 -99 64 -154t131 -55q48 0 82 15.5t57 43.5t37 66.5t21 83.5h-392zM151 1257q0 67 41.5 107.5t107.5 40.5t106 -40.5t40 -107.5q0 -59 -40 -99.5t-106 -40.5t-107.5 40.5t-41.5 99.5zM581 1257q0 67 39.5 107.5
t105.5 40.5q68 0 108 -40.5t40 -107.5q0 -59 -40 -99.5t-108 -40.5q-66 0 -105.5 40.5t-39.5 99.5z" />
    <glyph glyph-name="cyrEdieresis" unicode="&#x4ec;" horiz-adv-x="1389" 
d="M316 802h670q-11 72 -43 132t-84 104t-124 68.5t-162 24.5q-125 0 -227.5 -24.5t-190.5 -71.5l-62 239q56 26 120 46.5t129 34t127.5 20.5t116.5 7q89 0 174.5 -16t162 -50.5t141 -89t111 -131.5t73 -178t26.5 -229q0 -184 -57 -318.5t-156.5 -222.5t-234.5 -131
t-291 -43q-60 0 -122.5 6.5t-122 18.5t-112.5 28.5t-94 36.5l75 246q35 -18 78.5 -33.5t93 -26.5t103 -17.5t107.5 -6.5q81 0 155 19.5t133 61.5t100.5 108.5t58.5 160.5h-672v227zM215 1585q0 53 38 84.5t123 31.5q81 0 119 -31.5t38 -84.5q0 -50 -38 -80t-119 -30
q-85 0 -123 30t-38 80zM666 1585q0 53 38 84.5t119 31.5q85 0 123 -31.5t38 -84.5q0 -50 -38 -80t-123 -30q-81 0 -119 30t-38 80z" />
    <glyph glyph-name="cyredieresis" unicode="&#x4ed;" horiz-adv-x="885" 
d="M221 561h354q-6 40 -23.5 75t-47.5 61t-73.5 41t-102.5 15q-38 0 -67 -5t-53 -13t-45.5 -18t-45.5 -21l-66 179q27 16 58.5 31.5t70 28t85 20t103.5 7.5q108 0 190 -32t138 -87q60 -60 94.5 -158t34.5 -218q0 -109 -29.5 -199.5t-88 -156t-147 -102t-206.5 -36.5
q-177 0 -309 71l60 192q48 -23 100.5 -38.5t116.5 -15.5q70 0 115.5 16.5t74 45t42.5 66t22 78.5h-355v173zM19 1257q0 67 41.5 107.5t107.5 40.5t106 -40.5t40 -107.5q0 -59 -40 -99.5t-106 -40.5t-107.5 40.5t-41.5 99.5zM449 1257q0 67 39.5 107.5t105.5 40.5
q68 0 108 -40.5t40 -107.5q0 -59 -40 -99.5t-108 -40.5q-66 0 -105.5 40.5t-39.5 99.5z" />
    <glyph glyph-name="cyrUmacron" unicode="&#x4ee;" horiz-adv-x="1503" 
d="M714 785l68 -152h12l65 160l290 563h300l-436 -825q-24 -46 -57 -105t-67 -117t-65.5 -107.5t-53.5 -75.5q-59 -71 -126.5 -105t-160.5 -34q-60 0 -117 15.5t-99 38.5l72 231q34 -15 70.5 -24.5t69.5 -9.5q51 0 95 33t72 103l-581 982h336zM405 1675h723v-179h-723v179z
" />
    <glyph glyph-name="cyrumacron" unicode="&#x4ef;" 
d="M515 451l41 -130h5l31 130l156 485h256l-304 -848q-18 -50 -37 -99t-39 -93.5t-40 -82t-39 -65.5q-52 -75 -118 -105.5t-141 -30.5q-46 0 -103 16.5t-105 51.5l59 180q18 -10 36.5 -16.5t35 -10t30 -5t20.5 -1.5q28 0 61.5 10.5t58.5 37.5q20 21 38.5 60t29.5 77
l-422 924h301zM166 1315h680v-184h-680v184z" />
    <glyph glyph-name="cyrUdieresis" unicode="&#x4f0;" horiz-adv-x="1503" 
d="M714 785l68 -152h12l65 160l290 563h300l-436 -825q-24 -46 -57 -105t-67 -117t-65.5 -107.5t-53.5 -75.5q-59 -71 -126.5 -105t-160.5 -34q-60 0 -117 15.5t-99 38.5l72 231q34 -15 70.5 -24.5t69.5 -9.5q51 0 95 33t72 103l-581 982h336zM391 1585q0 53 38 84.5
t123 31.5q81 0 119 -31.5t38 -84.5q0 -50 -38 -80t-119 -30q-85 0 -123 30t-38 80zM842 1585q0 53 38 84.5t119 31.5q85 0 123 -31.5t38 -84.5q0 -50 -38 -80t-123 -30q-81 0 -119 30t-38 80z" />
    <glyph glyph-name="cyrudieresis" unicode="&#x4f1;" 
d="M515 451l41 -130h5l31 130l156 485h256l-304 -848q-18 -50 -37 -99t-39 -93.5t-40 -82t-39 -65.5q-52 -75 -118 -105.5t-141 -30.5q-46 0 -103 16.5t-105 51.5l59 180q18 -10 36.5 -16.5t35 -10t30 -5t20.5 -1.5q28 0 61.5 10.5t58.5 37.5q20 21 38.5 60t29.5 77
l-422 924h301zM151 1257q0 67 41.5 107.5t107.5 40.5t106 -40.5t40 -107.5q0 -59 -40 -99.5t-106 -40.5t-107.5 40.5t-41.5 99.5zM581 1257q0 67 39.5 107.5t105.5 40.5q68 0 108 -40.5t40 -107.5q0 -59 -40 -99.5t-108 -40.5q-66 0 -105.5 40.5t-39.5 99.5z" />
    <glyph glyph-name="cyrUdblacute" unicode="&#x4f2;" horiz-adv-x="1503" 
d="M714 785l68 -152h12l65 160l290 563h300l-436 -825q-24 -46 -57 -105t-67 -117t-65.5 -107.5t-53.5 -75.5q-59 -71 -126.5 -105t-160.5 -34q-60 0 -117 15.5t-99 38.5l72 231q34 -15 70.5 -24.5t69.5 -9.5q51 0 95 33t72 103l-581 982h336zM538 1697h281v-31l-211 -180
h-196zM954 1697h293v-31l-300 -180h-198z" />
    <glyph glyph-name="cyrudblacute" unicode="&#x4f3;" 
d="M515 451l41 -130h5l31 130l156 485h256l-304 -848q-18 -50 -37 -99t-39 -93.5t-40 -82t-39 -65.5q-52 -75 -118 -105.5t-141 -30.5q-46 0 -103 16.5t-105 51.5l59 180q18 -10 36.5 -16.5t35 -10t30 -5t20.5 -1.5q28 0 61.5 10.5t58.5 37.5q20 21 38.5 60t29.5 77
l-422 924h301zM329 1429h246v-27l-165 -227h-157zM724 1429h266v-27l-260 -227h-163z" />
    <glyph glyph-name="cyrChedieresis" unicode="&#x4f4;" horiz-adv-x="1503" 
d="M453 1356v-419q0 -61 18 -105t51 -72.5t79.5 -42t103.5 -13.5q40 0 81.5 5t80.5 13.5t74.5 21t64.5 27.5v585h287v-1356h-287v542q-72 -32 -175 -54.5t-232 -22.5q-89 0 -167.5 21.5t-137.5 67.5t-93.5 117.5t-34.5 172.5v512h287zM353 1585q0 53 38 84.5t123 31.5
q81 0 119 -31.5t38 -84.5q0 -50 -38 -80t-119 -30q-85 0 -123 30t-38 80zM804 1585q0 53 38 84.5t119 31.5q85 0 123 -31.5t38 -84.5q0 -50 -38 -80t-123 -30q-81 0 -119 30t-38 80z" />
    <glyph glyph-name="cyrchedieresis" unicode="&#x4f5;" horiz-adv-x="1155" 
d="M339 936v-216q0 -66 10 -108t31.5 -66t56 -33.5t82.5 -9.5q29 0 56.5 4.5t51.5 11.5t44 15t35 16v386h248v-936h-248v377q-12 -8 -37.5 -22t-63 -27.5t-86.5 -23.5t-108 -10q-74 0 -133.5 18.5t-101.5 60t-64.5 108.5t-22.5 163v292h250zM150 1257q0 67 41.5 107.5
t107.5 40.5t106 -40.5t40 -107.5q0 -59 -40 -99.5t-106 -40.5t-107.5 40.5t-41.5 99.5zM580 1257q0 67 39.5 107.5t105.5 40.5q68 0 108 -40.5t40 -107.5q0 -59 -40 -99.5t-108 -40.5q-66 0 -105.5 40.5t-39.5 99.5z" />
    <glyph glyph-name="uni04F6" unicode="&#x4f6;" horiz-adv-x="1303" 
d="M1213 1104h-706v-852h192v-492h-203l-31 240h-245v1356h993v-252z" />
    <glyph glyph-name="uni04F7" unicode="&#x4f7;" horiz-adv-x="930" 
d="M160 936h710v-222h-446v-493h164v-421h-183l-29 200h-216v936z" />
    <glyph glyph-name="cyrYerudieresis" unicode="&#x4f8;" horiz-adv-x="2011" 
d="M1501 1356h286v-1356h-286v1356zM224 1356h287v-482q10 2 33 4.5t51 5t57.5 4t53.5 1.5q45 0 97.5 -5t105 -16.5t102.5 -30t90 -45.5q39 -26 71.5 -61.5t56 -80t36.5 -96.5t13 -112q0 -117 -40 -201.5t-121 -144.5q-80 -60 -191 -87.5t-257 -27.5q-28 0 -82.5 1t-118 4.5
t-129 10t-115.5 16.5v1343zM684 233q58 0 111 10.5t92.5 34.5t63 63t23.5 96q0 59 -24.5 97.5t-65 61.5t-93 32t-107.5 9q-15 0 -41.5 -1.5t-53 -4t-49 -5.5t-29.5 -5v-379q12 -2 32.5 -3.5t44.5 -3t49.5 -2t46.5 -0.5zM621 1585q0 53 38 84.5t123 31.5q81 0 119 -31.5
t38 -84.5q0 -50 -38 -80t-119 -30q-85 0 -123 30t-38 80zM1072 1585q0 53 38 84.5t119 31.5q85 0 123 -31.5t38 -84.5q0 -50 -38 -80t-123 -30q-81 0 -119 30t-38 80z" />
    <glyph glyph-name="cyryerudieresis" unicode="&#x4f9;" horiz-adv-x="1599" 
d="M1187 936h249v-936h-249v936zM413 209q17 -4 38 -6.5t42.5 -4t41 -2t33.5 -0.5q100 0 144 32.5t44 97.5q0 61 -46 94.5t-138 33.5q-51 0 -90 -7t-69 -15v-223zM413 610q51 11 104 17t99 6q175 0 274 -66q60 -40 93.5 -105t33.5 -135q0 -84 -25.5 -147.5t-82 -106
t-146.5 -64t-219 -21.5q-112 0 -210.5 3t-170.5 7v938h250v-326zM438 1257q0 67 41.5 107.5t107.5 40.5t106 -40.5t40 -107.5q0 -59 -40 -99.5t-106 -40.5t-107.5 40.5t-41.5 99.5zM868 1257q0 67 39.5 107.5t105.5 40.5q68 0 108 -40.5t40 -107.5q0 -59 -40 -99.5
t-108 -40.5q-66 0 -105.5 40.5t-39.5 99.5z" />
    <glyph glyph-name="cyrHahook" unicode="&#x4fc;" horiz-adv-x="1479" 
d="M1095 -57q0 29 -11.5 61t-30 64.5t-40.5 64t-43 59.5l-242 318l-67 -98l-290 -412h-316l506 707l-469 649h346l260 -374l62 -94l58 85l268 383h316l-484 -656l291 -367q26 -33 57.5 -77.5t59 -97t46.5 -110t19 -115.5q0 -81 -23.5 -145t-68 -107.5t-107.5 -66.5t-141 -23
q-33 0 -67 4t-73 11v225q51 -4 86 2.5t57 22t31.5 38t9.5 49.5z" />
    <glyph glyph-name="cyrhahook" unicode="&#x4fd;" 
d="M886 242q21 -32 42 -67.5t37.5 -73t27 -75.5t10.5 -74q0 -166 -78.5 -253t-239.5 -87q-27 0 -54 3t-61 9v197q13 -1 23.5 -1.5t21.5 -0.5q41 0 68 8.5t42.5 23.5t22 35t6.5 43q0 21 -8.5 46t-21 50.5t-27 49.5t-26.5 43l-65 102l-79 123l-77 -124l-153 -219h-273l331 479
l-306 457h300l121 -192l74 -124l76 123l132 193h273l-307 -449z" />
    <glyph glyph-name="Hdesc" horiz-adv-x="1593" 
d="M1085 560h-588v-560h-287v1356h287v-545h588v545h286v-1104h182v-492h-203l-32 240h-233v560z" />
    <glyph glyph-name="Acute" horiz-adv-x="831" 
d="M387 1715h333v-60l-337 -169h-217z" />
    <glyph glyph-name="Dieresis" horiz-adv-x="1059" 
d="M145 1585q0 53 38 84.5t123 31.5q81 0 119 -31.5t38 -84.5q0 -50 -38 -80t-119 -30q-85 0 -123 30t-38 80zM596 1585q0 53 38 84.5t119 31.5q85 0 123 -31.5t38 -84.5q0 -50 -38 -80t-123 -30q-81 0 -119 30t-38 80z" />
    <glyph glyph-name="Hungarumlaut" horiz-adv-x="1128" 
d="M242 1697h281v-31l-211 -180h-196zM658 1697h293v-31l-300 -180h-198z" />
    <glyph glyph-name="Macron" horiz-adv-x="1010" 
d="M144 1675h723v-179h-723v179z" />
    <glyph glyph-name="cyrBreve" horiz-adv-x="1100" 
d="M405 1748q11 -60 51.5 -85.5t105.5 -25.5q140 0 157 109l235 -33q-24 -126 -122.5 -181.5t-271.5 -55.5q-85 0 -156.5 11t-125.5 38t-88 70.5t-44 111.5z" />
    <glyph glyph-name="cyrbreve" horiz-adv-x="1053" 
d="M395 1437q7 -41 20 -67.5t31 -43t41.5 -23t52.5 -6.5q61 0 95 30.5t50 107.5l202 -53q-14 -65 -47.5 -113t-81 -79.5t-106 -47t-121.5 -15.5q-65 0 -125 14t-109 44.5t-83.5 79t-48.5 117.5z" />
    <glyph glyph-name="l.var" horiz-adv-x="582" 
d="M166 1356h249v-1356h-249v1356z" />
    </font>
</defs>
</svg>
